<svg width="144" height="90" viewBox="0 0 144 90" fill="none" xmlns="http://www.w3.org/2000/svg">
<path d="M22.16 77.96C18.2667 77.96 14.4 77.4533 10.56 76.44C6.77333 75.3733 3.52 73.88 0.8 71.96L5.92 62.04C8.05333 63.5867 10.5067 64.8133 13.28 65.72C16.1067 66.6267 18.96 67.08 21.84 67.08C25.0933 67.08 27.6533 66.44 29.52 65.16C31.3867 63.88 32.32 62.0933 32.32 59.8C32.32 58.36 31.9467 57.08 31.2 55.96C30.4533 54.84 29.12 53.9867 27.2 53.4C25.3333 52.8133 22.6933 52.52 19.28 52.52H4.96L7.84 21H42V31.4H12.48L19.2 25.48L17.2 47.96L10.48 42.04H22.32C27.8667 42.04 32.32 42.8133 35.68 44.36C39.0933 45.8533 41.5733 47.9067 43.12 50.52C44.6667 53.1333 45.44 56.0933 45.44 59.4C45.44 62.7067 44.6133 65.7733 42.96 68.6C41.3067 71.3733 38.7467 73.64 35.28 75.4C31.8667 77.1067 27.4933 77.96 22.16 77.96Z" fill="white"/>
<path d="M70 77C81.598 77 91 63.7924 91 47.5C91 31.2076 81.598 18 70 18C58.402 18 49 31.2076 49 47.5C49 63.7924 58.402 77 70 77Z" fill="#FFEEE4"/>
<path d="M70 58.5625C74.3492 58.5625 77.875 53.6096 77.875 47.5C77.875 41.3903 74.3492 36.4375 70 36.4375C65.6508 36.4375 62.125 41.3903 62.125 47.5C62.125 53.6096 65.6508 58.5625 70 58.5625Z" fill="#0A8DFF"/>
<path d="M116 77C127.598 77 137 63.7924 137 47.5C137 31.2076 127.598 18 116 18C104.402 18 95 31.2076 95 47.5C95 63.7924 104.402 77 116 77Z" fill="#FFEEE4"/>
<path d="M116 58.5625C120.349 58.5625 123.875 53.6096 123.875 47.5C123.875 41.3903 120.349 36.4375 116 36.4375C111.651 36.4375 108.125 41.3903 108.125 47.5C108.125 53.6096 111.651 58.5625 116 58.5625Z" fill="#0A8DFF"/>
</svg>
