<svg width="59" height="18" viewBox="0 0 59 18" fill="none" xmlns="http://www.w3.org/2000/svg">
<path d="M50.3508 16.3407C53.9035 16.3407 56.7836 13.1899 56.7836 9.30327C56.7836 5.41662 53.9035 2.26587 50.3508 2.26587C46.798 2.26587 43.918 5.41662 43.918 9.30327C43.918 13.1899 46.798 16.3407 50.3508 16.3407Z" stroke="url(#paint0_linear_2904_15900)" stroke-width="2.94671" stroke-miterlimit="10"/>
<path d="M29.4543 16.3407C33.007 16.3407 35.8871 13.1899 35.8871 9.30327C35.8871 5.41662 33.007 2.26587 29.4543 2.26587C25.9016 2.26587 23.0215 5.41662 23.0215 9.30327C23.0215 13.1899 25.9016 16.3407 29.4543 16.3407Z" stroke="url(#paint1_linear_2904_15900)" stroke-width="2.94671" stroke-miterlimit="10"/>
<path d="M8.43277 16.3407C11.9855 16.3407 14.8656 13.1899 14.8656 9.30327C14.8656 5.41662 11.9855 2.26587 8.43277 2.26587C4.88002 2.26587 2 5.41662 2 9.30327C2 13.1899 4.88002 16.3407 8.43277 16.3407Z" stroke="url(#paint2_linear_2904_15900)" stroke-width="2.94671" stroke-miterlimit="10"/>
<defs>
<linearGradient id="paint0_linear_2904_15900" x1="50.3508" y1="20.6134" x2="50.3508" y2="2.26587" gradientUnits="userSpaceOnUse">
<stop stop-color="#53A4D0"/>
<stop offset="1" stop-color="#FFDCA5"/>
</linearGradient>
<linearGradient id="paint1_linear_2904_15900" x1="29.4543" y1="20.6134" x2="29.4543" y2="2.26587" gradientUnits="userSpaceOnUse">
<stop stop-color="#53A4D0"/>
<stop offset="1" stop-color="#FFDCA5"/>
</linearGradient>
<linearGradient id="paint2_linear_2904_15900" x1="8.43279" y1="20.6134" x2="8.43279" y2="2.26587" gradientUnits="userSpaceOnUse">
<stop stop-color="#53A4D0"/>
<stop offset="1" stop-color="#FFDCA5"/>
</linearGradient>
</defs>
</svg>
