<svg width="348" height="300" viewBox="0 0 348 300" fill="none" xmlns="http://www.w3.org/2000/svg">
<g opacity="0.81">
<path d="M196.481 232.186H175.744C175.25 232.186 174.846 231.786 174.846 231.297C174.846 230.808 175.25 230.408 175.744 230.408H196.481C196.975 230.408 197.379 230.808 197.379 231.297C197.379 231.786 196.975 232.186 196.481 232.186Z" fill="#F3F3F3" fill-opacity="0.4"/>
<path d="M196.481 253.525H175.744C175.25 253.525 174.846 253.125 174.846 252.636C174.846 252.147 175.25 251.747 175.744 251.747H196.481C196.975 251.747 197.379 252.147 197.379 252.636C197.379 253.125 196.975 253.525 196.481 253.525Z" fill="#F3F3F3" fill-opacity="0.4"/>
<path d="M212.323 275.077H83.8791C82.532 275.077 81.4453 273.992 81.4453 272.667V206.491C81.4453 205.158 82.541 204.082 83.8791 204.082H212.323C213.67 204.082 214.757 205.166 214.757 206.491V272.667C214.757 274.001 213.661 275.077 212.323 275.077ZM83.8791 205.851C83.5289 205.851 83.2415 206.136 83.2415 206.482V272.658C83.2415 273.005 83.5289 273.29 83.8791 273.29H212.323C212.673 273.29 212.961 273.005 212.961 272.658V206.482C212.961 206.136 212.673 205.851 212.323 205.851H83.8791Z" fill="#F3F3F3" fill-opacity="0.4"/>
<path opacity="0.66" d="M212.323 275.077H83.8791C82.532 275.077 81.4453 273.992 81.4453 272.667V206.491C81.4453 205.158 82.541 204.082 83.8791 204.082H212.323C213.67 204.082 214.757 205.166 214.757 206.491V272.667C214.757 274.001 213.661 275.077 212.323 275.077ZM83.8791 205.851C83.5289 205.851 83.2415 206.136 83.2415 206.482V272.658C83.2415 273.005 83.5289 273.29 83.8791 273.29H212.323C212.673 273.29 212.961 273.005 212.961 272.658V206.482C212.961 206.136 212.673 205.851 212.323 205.851H83.8791Z" fill="#F3F3F3" fill-opacity="0.4"/>
<path d="M97.2238 215.889H129.743C130.354 215.889 130.848 216.378 130.848 216.983V260.531C130.848 261.136 130.354 261.625 129.743 261.625H97.2238C96.6131 261.625 96.1191 261.136 96.1191 260.531V216.983C96.1191 216.378 96.6131 215.889 97.2238 215.889Z" fill="#F3F3F3" fill-opacity="0.4"/>
<path d="M196.481 221.828H139.453C138.959 221.828 138.555 221.428 138.555 220.939C138.555 220.45 138.959 220.05 139.453 220.05H196.481C196.975 220.05 197.379 220.45 197.379 220.939C197.379 221.428 196.975 221.828 196.481 221.828Z" fill="#F3F3F3" fill-opacity="0.4"/>
<path d="M196.481 242.544H139.453C138.959 242.544 138.555 242.144 138.555 241.655C138.555 241.166 138.959 240.766 139.453 240.766H196.481C196.975 240.766 197.379 241.166 197.379 241.655C197.379 242.144 196.975 242.544 196.481 242.544Z" fill="#F3F3F3" fill-opacity="0.4"/>
<path d="M170.203 232.186H139.453C138.959 232.186 138.555 231.786 138.555 231.297C138.555 230.808 138.959 230.408 139.453 230.408H170.203C170.697 230.408 171.101 230.808 171.101 231.297C171.101 231.786 170.697 232.186 170.203 232.186Z" fill="#F3F3F3" fill-opacity="0.4"/>
<path d="M170.203 253.525H139.453C138.959 253.525 138.555 253.125 138.555 252.636C138.555 252.147 138.959 251.747 139.453 251.747H170.203C170.697 251.747 171.101 252.147 171.101 252.636C171.101 253.125 170.697 253.525 170.203 253.525Z" fill="#F3F3F3" fill-opacity="0.4"/>
<path d="M160.19 263.412H139.453C138.959 263.412 138.555 263.012 138.555 262.523C138.555 262.034 138.959 261.634 139.453 261.634H160.19C160.683 261.634 161.088 262.034 161.088 262.523C161.088 263.012 160.683 263.412 160.19 263.412Z" fill="#F3F3F3" fill-opacity="0.4"/>
</g>
<g clip-path="url(#clip0_2904_16024)">
<path d="M227.461 299.538H199.871C196.221 299.538 193.271 296.859 193.271 293.565V159.723H236.271V291.565C236.271 295.972 232.331 299.538 227.461 299.538Z" fill="#00537A"/>
<path d="M229.931 299.538H212.271V159.723H236.271V293.801C236.271 296.968 233.431 299.538 229.931 299.538Z" fill="#177AA4"/>
<path d="M138.591 31.2207H276.121C306.851 31.2207 331.771 53.763 331.771 81.5811V170.067C331.771 172.103 329.951 173.75 327.701 173.75H86.2315C85.9815 173.75 85.7715 173.569 85.7715 173.334V79.0201C85.7715 52.6227 109.421 31.2207 138.591 31.2207Z" fill="url(#paint0_linear_2904_16024)"/>
<g opacity="0.07">
<path d="M155.591 50.677H259.541C290.271 50.677 315.191 73.2193 315.191 101.037V170.067C315.191 172.103 313.371 173.75 311.121 173.75H103.231C102.981 173.75 102.771 173.569 102.771 173.334V98.4764C102.771 72.079 126.421 50.677 155.591 50.677Z" fill="#F3F3F3"/>
</g>
<g opacity="0.65">
<path d="M327.181 174.203H175.271V162.438H331.771V170.049C331.771 172.338 329.721 174.203 327.181 174.203Z" fill="#177AA4"/>
</g>
<g opacity="0.65">
<path d="M327.181 174.203H175.271V162.438H331.771V170.049C331.771 172.338 329.721 174.203 327.181 174.203Z" fill="#177AA4"/>
</g>
<path d="M328.301 173.75H259.151V162.782H331.771V170.61C331.771 172.348 330.221 173.75 328.301 173.75Z" fill="#00537A"/>
<path opacity="0.07" d="M331.771 81.8979H182.771V162.438H331.771V81.8979Z" fill="#373449"/>
<path d="M176.771 170.583H91.7715C88.4615 170.583 85.7715 168.149 85.7715 165.153V77.8256C85.7715 53.582 107.481 33.9355 134.271 33.9355C161.061 33.9355 182.771 53.582 182.771 77.8256V165.153C182.771 168.149 180.081 170.583 176.771 170.583Z" fill="#177AA4"/>
<path d="M175.771 170.583H90.7715V78.7306C90.7715 57.4914 109.801 40.2703 133.271 40.2703C156.741 40.2703 175.771 57.4914 175.771 78.7306V170.583Z" fill="#373449"/>
<mask id="mask0_2904_16024" style="mask-type:luminance" maskUnits="userSpaceOnUse" x="90" y="40" width="86" height="131">
<path d="M175.771 170.583H90.7715V78.7306C90.7715 57.4914 109.801 40.2703 133.271 40.2703C156.741 40.2703 175.771 57.4914 175.771 78.7306V170.583Z" fill="white"/>
</mask>
<g mask="url(#mask0_2904_16024)">
<path d="M179.181 158.819H108.771C106.231 158.819 104.161 156.954 104.161 154.647V116.313C104.161 113.435 106.741 111.11 109.911 111.11H176.811C180.661 111.11 183.781 113.933 183.781 117.417V154.647C183.781 156.945 181.721 158.819 179.171 158.819H179.181Z" fill="url(#paint1_linear_2904_16024)"/>
<path opacity="0.56" d="M180.171 158.819H107.781C105.781 158.819 104.161 157.353 104.161 155.543V115.689C104.161 115.2 104.361 114.72 104.721 114.349C105.141 113.915 105.861 113.861 106.351 114.232L134.031 134.955L139.751 139.245C142.201 141.073 145.741 141.054 148.171 139.199L182.151 113.092C184.281 114.92 183.801 116.757 183.801 116.757V155.534C183.801 157.344 182.181 158.81 180.181 158.81L180.171 158.819Z" fill="#00537A"/>
<path d="M105.811 159.226C105.531 159.226 105.261 159.126 105.061 158.927C104.691 158.556 104.731 157.986 105.141 157.651L134.991 133.616C135.401 133.281 136.031 133.317 136.401 133.688C136.771 134.059 136.731 134.629 136.321 134.964L106.471 159C106.281 159.153 106.041 159.226 105.811 159.226Z" fill="url(#paint2_linear_2904_16024)"/>
<path d="M181.041 159.226C180.801 159.226 180.571 159.153 180.381 158.999L151.371 135.733C150.961 135.398 150.921 134.828 151.281 134.457C151.651 134.086 152.281 134.05 152.691 134.376L181.701 157.651C182.111 157.986 182.151 158.556 181.781 158.927C181.581 159.126 181.311 159.235 181.031 159.235L181.041 159.226Z" fill="url(#paint3_linear_2904_16024)"/>
<path d="M176.271 170.583H97.2715V166.167C97.2715 162.113 100.901 158.819 105.391 158.819H176.271V170.583Z" fill="url(#paint4_linear_2904_16024)"/>
</g>
<path d="M173.361 186.872H30.5115C25.1315 186.872 20.7715 182.926 20.7715 178.058V170.583H184.771V176.546C184.771 182.248 179.661 186.872 173.361 186.872Z" fill="url(#paint5_linear_2904_16024)"/>
<path d="M173.361 186.872H128.511C123.131 186.872 118.771 182.926 118.771 178.058V170.583H184.771V176.546C184.771 182.248 179.661 186.872 173.361 186.872Z" fill="#177AA4"/>
<path d="M221.771 97.2819C229.503 97.2819 235.771 91.6097 235.771 84.6126C235.771 77.6156 229.503 71.9434 221.771 71.9434C214.039 71.9434 207.771 77.6156 207.771 84.6126C207.771 91.6097 214.039 97.2819 221.771 97.2819Z" fill="#00537A"/>
<path d="M221.771 88.685C219.281 88.685 217.271 86.866 217.271 84.6127V4.07227C217.271 1.81895 219.281 0 221.771 0C224.261 0 226.271 1.81895 226.271 4.07227V84.6127C226.271 86.866 224.261 88.685 221.771 88.685Z" fill="#00537A"/>
<path d="M223.771 95.4722C230.399 95.4722 235.771 90.6103 235.771 84.6128C235.771 78.6153 230.399 73.7534 223.771 73.7534C217.144 73.7534 211.771 78.6153 211.771 84.6128C211.771 90.6103 217.144 95.4722 223.771 95.4722Z" fill="#177AA4"/>
<path d="M227.771 23.6644V4.07227H268.801L227.771 23.6644Z" fill="url(#paint6_linear_2904_16024)"/>
<path d="M227.771 23.6644V4.07227H268.801L227.771 23.6644Z" fill="url(#paint7_linear_2904_16024)"/>
<path d="M223.771 88.685C221.281 88.685 219.271 86.866 219.271 84.6127V4.07227C219.271 1.81895 221.281 0 223.771 0C226.261 0 228.271 1.81895 228.271 4.07227V84.6127C228.271 86.866 226.261 88.685 223.771 88.685Z" fill="#177AA4"/>
<path d="M223.771 90.9474C219.771 90.9474 216.521 88.0064 216.521 84.3866C216.521 80.7668 219.771 77.8257 223.771 77.8257C227.771 77.8257 231.021 80.7668 231.021 84.3866C231.021 88.0064 227.771 90.9474 223.771 90.9474ZM223.771 78.7306C220.321 78.7306 217.521 81.2645 217.521 84.3866C217.521 87.5086 220.321 90.0425 223.771 90.0425C227.221 90.0425 230.021 87.5086 230.021 84.3866C230.021 81.2645 227.221 78.7306 223.771 78.7306Z" fill="#00537A"/>
</g>
<g clip-path="url(#clip1_2904_16024)">
<path d="M78.5375 105.273H4.14017C1.85904 105.273 0 103.441 0 101.174V56.1944C0 53.367 2.31706 51.082 5.16399 51.082H76.409C79.8667 51.082 82.6687 53.856 82.6687 57.2791V101.174C82.6687 103.432 80.8186 105.273 78.5285 105.273H78.5375Z" fill="url(#paint8_linear_2904_16024)"/>
<path opacity="0.59" d="M78.9237 105.273H3.75399C1.67942 105.273 0 103.61 0 101.556V56.2833C0 55.7231 0.206559 55.1808 0.574774 54.7629C1.00585 54.2739 1.76025 54.2117 2.26317 54.6295L31.0019 78.173L36.9472 83.0453C39.4888 85.1258 43.1709 85.108 45.6856 82.9919L80.9623 53.3403C83.1716 55.4208 82.6687 57.5102 82.6687 57.5102V101.556C82.6687 103.61 80.9893 105.273 78.9147 105.273H78.9237Z" fill="#00537A"/>
<path d="M2.54153 104.864C2.29007 104.864 2.04758 104.766 1.86797 104.562C1.53568 104.197 1.5716 103.637 1.93981 103.308L32.0975 76.7417C32.4657 76.4127 33.0315 76.4483 33.3638 76.8128C33.6961 77.1773 33.6602 77.7375 33.292 78.0664L3.14325 104.633C2.97261 104.784 2.75707 104.855 2.55051 104.855L2.54153 104.864Z" fill="url(#paint9_linear_2904_16024)"/>
<path d="M79.8221 105.095C79.6155 105.095 79.4 105.024 79.2293 104.873L49.1076 78.9465C48.7304 78.6264 48.6944 78.0663 49.0178 77.6928C49.3411 77.3194 49.9069 77.2839 50.2841 77.6039L80.4058 103.53C80.783 103.85 80.8189 104.41 80.4956 104.784C80.316 104.988 80.0645 105.086 79.8221 105.086V105.095Z" fill="url(#paint10_linear_2904_16024)"/>
<path d="M82.2373 65.5744C90.1931 65.5744 96.6426 59.1895 96.6426 51.3132C96.6426 43.437 90.1931 37.052 82.2373 37.052C74.2815 37.052 67.832 43.437 67.832 51.3132C67.832 59.1895 74.2815 65.5744 82.2373 65.5744Z" fill="url(#paint11_linear_2904_16024)"/>
<path d="M84.0064 57.0925H82.4257V47.6502L80.8271 48.6193V47.0011L82.4257 45.9431H84.0064V57.0836V57.0925Z" fill="#F3F3F3"/>
<path d="M134.56 155.24H38.2947C35.5016 155.24 33.2295 153 33.2295 150.226V91.4118C33.2295 88.291 35.789 85.7571 38.9413 85.7571H132.441C136.195 85.7571 139.248 88.7711 139.248 92.4965V150.608C139.248 153.169 137.156 155.24 134.569 155.24H134.56Z" fill="url(#paint12_linear_2904_16024)"/>
<path d="M134.426 155.24H38.0432C35.3849 155.24 33.2295 153.107 33.2295 150.475V92.4342C33.2295 91.714 33.4899 91.0294 33.9659 90.4871C34.5227 89.8558 35.4837 89.7847 36.1393 90.3181L72.9877 120.503L80.6124 126.745C83.8725 129.412 88.5874 129.385 91.8116 126.674L137.048 88.6555C139.877 91.3228 139.239 93.999 139.239 93.999V150.475C139.239 153.107 137.084 155.24 134.426 155.24Z" fill="url(#paint13_linear_2904_16024)"/>
<path d="M36.023 154.814C35.7715 154.814 35.529 154.716 35.3494 154.511C35.0171 154.147 35.053 153.587 35.4213 153.258L74.5688 118.841C74.937 118.512 75.5118 118.547 75.8351 118.912C76.1674 119.276 76.1314 119.836 75.7632 120.165L36.6157 154.582C36.4451 154.734 36.2295 154.805 36.023 154.805V154.814Z" fill="url(#paint14_linear_2904_16024)"/>
<path d="M135.71 154.894C135.504 154.894 135.288 154.823 135.118 154.672L96.3742 121.295C95.997 120.975 95.961 120.414 96.2844 120.041C96.6077 119.668 97.1735 119.632 97.5507 119.952L136.294 153.329C136.671 153.649 136.707 154.209 136.384 154.583C136.204 154.787 135.953 154.885 135.71 154.885V154.894Z" fill="url(#paint15_linear_2904_16024)"/>
</g>
<g opacity="0.81">
<path d="M329.397 103.267H308.66C308.166 103.267 307.762 102.867 307.762 102.378C307.762 101.889 308.166 101.489 308.66 101.489H329.397C329.891 101.489 330.295 101.889 330.295 102.378C330.295 102.867 329.891 103.267 329.397 103.267Z" fill="#F3F3F3" fill-opacity="0.4"/>
<path d="M329.397 124.605H308.66C308.166 124.605 307.762 124.205 307.762 123.716C307.762 123.227 308.166 122.827 308.66 122.827H329.397C329.891 122.827 330.295 123.227 330.295 123.716C330.295 124.205 329.891 124.605 329.397 124.605Z" fill="#F3F3F3" fill-opacity="0.4"/>
<path d="M345.239 146.157H216.795C215.448 146.157 214.361 145.072 214.361 143.747V77.5713C214.361 76.2377 215.457 75.1619 216.795 75.1619H345.239C346.586 75.1619 347.673 76.2466 347.673 77.5713V143.747C347.673 145.081 346.577 146.157 345.239 146.157ZM216.795 76.9312C216.445 76.9312 216.157 77.2157 216.157 77.5625V143.738C216.157 144.085 216.445 144.37 216.795 144.37H345.239C345.589 144.37 345.877 144.085 345.877 143.738V77.5625C345.877 77.2157 345.589 76.9312 345.239 76.9312H216.795Z" fill="#F3F3F3" fill-opacity="0.4"/>
<path opacity="0.66" d="M345.239 146.157H216.795C215.448 146.157 214.361 145.072 214.361 143.747V77.5713C214.361 76.2377 215.457 75.1619 216.795 75.1619H345.239C346.586 75.1619 347.673 76.2466 347.673 77.5713V143.747C347.673 145.081 346.577 146.157 345.239 146.157ZM216.795 76.9312C216.445 76.9312 216.157 77.2157 216.157 77.5625V143.738C216.157 144.085 216.445 144.37 216.795 144.37H345.239C345.589 144.37 345.877 144.085 345.877 143.738V77.5625C345.877 77.2157 345.589 76.9312 345.239 76.9312H216.795Z" fill="#F3F3F3" fill-opacity="0.4"/>
<path d="M230.14 86.9692H262.659C263.27 86.9692 263.764 87.4583 263.764 88.0628V131.611C263.764 132.216 263.27 132.705 262.659 132.705H230.14C229.529 132.705 229.035 132.216 229.035 131.611V88.0628C229.035 87.4583 229.529 86.9692 230.14 86.9692Z" fill="#F3F3F3" fill-opacity="0.4"/>
<path d="M329.397 92.9086H272.369C271.875 92.9086 271.471 92.5085 271.471 92.0195C271.471 91.5305 271.875 91.1304 272.369 91.1304H329.397C329.891 91.1304 330.295 91.5305 330.295 92.0195C330.295 92.5085 329.891 92.9086 329.397 92.9086Z" fill="#F3F3F3" fill-opacity="0.4"/>
<path d="M329.397 113.625H272.369C271.875 113.625 271.471 113.225 271.471 112.736C271.471 112.247 271.875 111.846 272.369 111.846H329.397C329.891 111.846 330.295 112.247 330.295 112.736C330.295 113.225 329.891 113.625 329.397 113.625Z" fill="#F3F3F3" fill-opacity="0.4"/>
<path d="M303.119 103.267H272.369C271.875 103.267 271.471 102.867 271.471 102.378C271.471 101.889 271.875 101.489 272.369 101.489H303.119C303.613 101.489 304.017 101.889 304.017 102.378C304.017 102.867 303.613 103.267 303.119 103.267Z" fill="#F3F3F3" fill-opacity="0.4"/>
<path d="M303.119 124.605H272.369C271.875 124.605 271.471 124.205 271.471 123.716C271.471 123.227 271.875 122.827 272.369 122.827H303.119C303.613 122.827 304.017 123.227 304.017 123.716C304.017 124.205 303.613 124.605 303.119 124.605Z" fill="#F3F3F3" fill-opacity="0.4"/>
<path d="M293.106 134.492H272.369C271.875 134.492 271.471 134.092 271.471 133.603C271.471 133.114 271.875 132.714 272.369 132.714H293.106C293.6 132.714 294.004 133.114 294.004 133.603C294.004 134.092 293.6 134.492 293.106 134.492Z" fill="#F3F3F3" fill-opacity="0.4"/>
</g>
<defs>
<linearGradient id="paint0_linear_2904_16024" x1="85.7994" y1="102.485" x2="331.771" y2="102.485" gradientUnits="userSpaceOnUse">
<stop stop-color="#348BB6"/>
<stop offset="1" stop-color="#CCE1F0"/>
</linearGradient>
<linearGradient id="paint1_linear_2904_16024" x1="97.1587" y1="107.025" x2="190.104" y2="142.031" gradientUnits="userSpaceOnUse">
<stop stop-color="#398FBA"/>
<stop offset="1" stop-color="#97FBFE"/>
</linearGradient>
<linearGradient id="paint2_linear_2904_16024" x1="102.006" y1="131.173" x2="141.409" y2="142.134" gradientUnits="userSpaceOnUse">
<stop stop-color="#398FBA"/>
<stop offset="1" stop-color="#97FBFE"/>
</linearGradient>
<linearGradient id="paint3_linear_2904_16024" x1="148.309" y1="132.006" x2="186.647" y2="142.7" gradientUnits="userSpaceOnUse">
<stop stop-color="#398FBA"/>
<stop offset="1" stop-color="#97FBFE"/>
</linearGradient>
<linearGradient id="paint4_linear_2904_16024" x1="163.002" y1="182.075" x2="143.201" y2="136.182" gradientUnits="userSpaceOnUse">
<stop stop-color="#6BB9E7"/>
<stop offset="1" stop-color="#894584"/>
</linearGradient>
<linearGradient id="paint5_linear_2904_16024" x1="20.7901" y1="178.727" x2="184.771" y2="178.727" gradientUnits="userSpaceOnUse">
<stop stop-color="#348BB6"/>
<stop offset="1" stop-color="#CCE1F0"/>
</linearGradient>
<linearGradient id="paint6_linear_2904_16024" x1="224.163" y1="2.39486" x2="268.868" y2="23.5236" gradientUnits="userSpaceOnUse">
<stop stop-color="#398FBA"/>
<stop offset="1" stop-color="#97FBFE"/>
</linearGradient>
<linearGradient id="paint7_linear_2904_16024" x1="224.163" y1="2.39486" x2="268.868" y2="23.5236" gradientUnits="userSpaceOnUse">
<stop stop-color="#398FBA"/>
<stop offset="1" stop-color="#97FBFE"/>
</linearGradient>
<linearGradient id="paint8_linear_2904_16024" x1="-7.27054" y1="46.4424" x2="91.2458" y2="80.3597" gradientUnits="userSpaceOnUse">
<stop stop-color="#398FBA"/>
<stop offset="1" stop-color="#97FBFE"/>
</linearGradient>
<linearGradient id="paint9_linear_2904_16024" x1="-1.1705" y1="74.0885" x2="38.8322" y2="84.2642" gradientUnits="userSpaceOnUse">
<stop stop-color="#398FBA"/>
<stop offset="1" stop-color="#97FBFE"/>
</linearGradient>
<linearGradient id="paint10_linear_2904_16024" x1="45.9908" y1="75.0139" x2="85.8423" y2="85.3738" gradientUnits="userSpaceOnUse">
<stop stop-color="#398FBA"/>
<stop offset="1" stop-color="#97FBFE"/>
</linearGradient>
<linearGradient id="paint11_linear_2904_16024" x1="91.8034" y1="93.4371" x2="50.7769" y2="79.1338" gradientUnits="userSpaceOnUse">
<stop stop-color="#6BB9E7"/>
<stop offset="1" stop-color="#894584"/>
</linearGradient>
<linearGradient id="paint12_linear_2904_16024" x1="78.5536" y1="111.655" x2="135.105" y2="213.49" gradientUnits="userSpaceOnUse">
<stop stop-color="#CB82C5"/>
<stop offset="1" stop-color="white"/>
</linearGradient>
<linearGradient id="paint13_linear_2904_16024" x1="121.485" y1="220.285" x2="-8.59646" y2="148.763" gradientUnits="userSpaceOnUse">
<stop stop-color="#6BB9E7"/>
<stop offset="1" stop-color="#894584"/>
</linearGradient>
<linearGradient id="paint14_linear_2904_16024" x1="52.6243" y1="132.107" x2="85.9327" y2="176.568" gradientUnits="userSpaceOnUse">
<stop stop-color="#CB82C5"/>
<stop offset="1" stop-color="white"/>
</linearGradient>
<linearGradient id="paint15_linear_2904_16024" x1="113.395" y1="132.839" x2="145.567" y2="176.617" gradientUnits="userSpaceOnUse">
<stop stop-color="#CB82C5"/>
<stop offset="1" stop-color="white"/>
</linearGradient>
<clipPath id="clip0_2904_16024">
<rect width="311" height="299.538" fill="white" transform="translate(20.7715)"/>
</clipPath>
<clipPath id="clip1_2904_16024">
<rect width="139.302" height="118.188" fill="white" transform="translate(0 37.052)"/>
</clipPath>
</defs>
</svg>
