<svg width="150" height="92" viewBox="0 0 150 92" fill="none" xmlns="http://www.w3.org/2000/svg">
<path d="M141.569 0.351049V64.342H23.2383" stroke="#AB68A5" stroke-width="1.99104" stroke-miterlimit="10"/>
<path d="M141.568 56.4196C145.835 56.4196 149.293 59.9668 149.293 64.3424C149.293 68.718 145.835 72.2651 141.568 72.2651C137.302 72.2651 133.844 68.718 133.844 64.3424C133.844 59.9668 137.302 56.4196 141.568 56.4196Z" fill="#0A8CFF"/>
<path d="M26.3856 46.9781C17.0516 46.9781 9.45564 54.7689 9.45564 64.3422C9.45564 73.9155 17.0516 81.7062 26.3856 81.7062V91.4043C11.8374 91.4043 0 79.2634 0 64.3422C0 49.421 11.8374 37.2801 26.3856 37.2801V46.9781Z" fill="url(#paint0_linear_2904_16168)"/>
<path d="M22.6368 56.4196C26.903 56.4196 30.3615 59.9668 30.3615 64.3424C30.3615 68.718 26.903 72.2651 22.6368 72.2651C18.3706 72.2651 14.9121 68.718 14.9121 64.3424C14.9121 59.9668 18.3706 56.4196 22.6368 56.4196Z" fill="#E17A3D"/>
<defs>
<linearGradient id="paint0_linear_2904_16168" x1="26.3892" y1="64.3422" x2="0.00357633" y2="64.3422" gradientUnits="userSpaceOnUse">
<stop stop-color="#F7D389"/>
<stop offset="1" stop-color="#AB68A5"/>
</linearGradient>
</defs>
</svg>
