<svg width="136" height="146" viewBox="0 0 136 146" fill="none" xmlns="http://www.w3.org/2000/svg">
<path d="M36.1539 137.596C34.0956 136.379 62.4992 84.6117 60.7241 83.0781C58.898 81.4987 19.3669 123.604 17.8549 121.742C16.3156 119.845 59.2251 81.8846 58.029 79.7511C56.8228 77.5996 6.47546 102.308 5.63167 99.9721C4.78726 97.6319 56.9646 77.9855 56.5025 75.5162C56.0388 73.0591 1.00813 77.5237 0.94009 74.9984C0.872045 72.4732 56.042 73.5311 56.3798 71.0232C56.7138 68.5596 3.62174 52.0946 4.3595 49.6806C5.09726 47.2665 56.5751 69.0074 57.6911 66.755C58.8035 64.5033 14.0282 29.2228 15.4336 27.2802C16.8773 25.2826 58.5395 64.8718 60.2418 63.2177C61.9441 61.5636 30.9816 11.5948 32.9319 10.2863C34.8985 8.96669 61.6137 61.79 63.7459 60.8676C65.885 59.9438 52.3456 1.417 54.6022 0.907605C56.8482 0.400242 65.5123 60.0195 67.8212 59.9489C70.1084 59.8785 75.6539 -0.18507 77.9464 0.18446C80.1983 0.54988 69.6332 59.7911 71.8398 60.5982C74.0465 61.4053 98.0311 7.03971 100.089 8.25669C102.148 9.47367 73.7441 61.241 75.5192 62.7746C77.2943 64.3082 116.876 22.2488 118.388 24.1111C119.928 26.0078 77.0182 63.9681 78.2143 66.1017C79.4205 68.2531 129.768 43.5443 130.612 45.8807C131.456 48.2209 79.2786 67.8672 79.7407 70.3366C80.2045 72.7936 135.235 68.3291 135.303 70.8543C135.368 73.3564 80.2013 72.3216 79.8635 74.8296C79.5295 77.2931 132.622 93.7581 131.884 96.1722C131.146 98.5862 79.6681 76.8453 78.5522 79.0977C77.4398 81.3494 122.215 116.63 120.81 118.573C119.366 120.57 77.7037 80.9808 76.0014 82.6349C74.2676 84.3189 105.262 134.258 103.311 135.566C101.361 136.875 74.6295 84.0627 72.4974 84.9852C70.3583 85.9089 83.8977 144.436 81.6411 144.945C79.3951 145.452 70.731 85.8332 68.4221 85.9038C66.1349 85.9742 60.5894 146.038 58.2969 145.668C56.0044 145.299 66.6101 86.0616 64.4035 85.2545C62.2552 84.4719 38.2122 138.813 36.1539 137.596Z" fill="url(#paint0_linear_2904_15891)"/>
<defs>
<linearGradient id="paint0_linear_2904_15891" x1="56.4907" y1="0.548424" x2="84.1638" y2="144.46" gradientUnits="userSpaceOnUse">
<stop stop-color="#F7D389"/>
<stop offset="1" stop-color="#AB68A5"/>
</linearGradient>
</defs>
</svg>
