<svg width="334" height="159" viewBox="0 0 334 159" fill="none" xmlns="http://www.w3.org/2000/svg">
<path d="M86.6776 72.7144C104.652 72.7144 119.223 58.2453 119.223 40.3968C119.223 22.5482 104.652 8.0791 86.6776 8.0791C68.7031 8.0791 54.1318 22.5482 54.1318 40.3968C54.1318 58.2453 68.7031 72.7144 86.6776 72.7144Z" fill="#FFEEE4"/>
<path d="M86.6773 52.5161C93.4178 52.5161 98.882 47.0902 98.882 40.397C98.882 33.7037 93.4178 28.2778 86.6773 28.2778C79.9369 28.2778 74.4727 33.7037 74.4727 40.397C74.4727 47.0902 79.9369 52.5161 86.6773 52.5161Z" fill="#0A8DFF"/>
<path d="M36.3251 84.3368C31.1502 84.3368 26.3389 83.4885 21.8993 81.7959C17.4556 80.1032 13.6098 77.6915 10.3497 74.5608C7.0897 71.43 4.55274 67.7538 2.73083 63.5364C0.908926 59.3189 0 54.6854 0 49.6398C0 44.5942 0.908926 39.9607 2.73083 35.7432C4.55274 31.5257 7.10586 27.8536 10.3982 24.7229C13.6865 21.5921 17.5364 19.1804 21.9477 17.4878C26.3551 15.7951 31.1785 14.9468 36.422 14.9468C42.2352 14.9468 47.4908 15.9527 52.189 17.9644C56.8872 19.9762 60.8299 22.9333 64.0254 26.8316L54.0594 36.0341C51.7608 33.4163 49.2037 31.449 46.392 30.1401C43.5804 28.8313 40.5142 28.1768 37.1895 28.1768C34.0588 28.1768 31.1825 28.6899 28.5648 29.7119C25.943 30.734 23.6767 32.2044 21.7579 34.1192C19.8431 36.0381 18.3564 38.3044 17.3021 40.9221C16.2477 43.5439 15.7185 46.4484 15.7185 49.6438C15.7185 52.8392 16.2477 55.7478 17.3021 58.3656C18.3564 60.9873 19.8431 63.2536 21.7579 65.1725C23.6767 67.0913 25.943 68.5577 28.5648 69.5798C31.1825 70.6018 34.0588 71.1149 37.1895 71.1149C40.5102 71.1149 43.5763 70.4604 46.392 69.1516C49.2037 67.8427 51.7608 65.8431 54.0594 63.1607L64.0254 72.3632C60.8299 76.2615 56.8872 79.2307 52.189 81.2748C47.4908 83.3188 42.2028 84.3409 36.3251 84.3409V84.3368Z" fill="#FFEEE4"/>
<path d="M123.211 42.5176V71.7408H137.039V65.0591L123.211 42.5176Z" fill="#0A8DFF"/>
<path d="M183.018 8.0791L159.491 47.5996L135.485 8.0791H123.211V11.6017L155.92 64.9178H162.502L181.387 33.7676L181.553 71.7409H195.381V8.0791H183.018Z" fill="#FFEEE4"/>
<path d="M202.794 79.6144V12.5229H218.323V79.6144H202.794Z" fill="#FFEEE4"/>
<path fill-rule="evenodd" clip-rule="evenodd" d="M225.012 0V63.6618H239.665V25.039L271.54 63.6618H271.602C271.513 64.707 271.468 65.7722 271.468 66.8574C271.468 71.6444 272.338 76.0397 274.08 80.043C275.821 84.0464 278.25 87.5326 281.362 90.5018C284.474 93.4751 288.168 95.7656 292.444 97.3693C296.715 98.9771 301.386 99.781 306.455 99.781C311.035 99.781 315.616 99.0983 320.193 97.7329C324.768 96.368 328.826 94.3574 332.369 91.6889L332.373 91.6895V91.6855V65.8596H318.818V84.5676C317.837 85.0826 316.845 85.5149 315.844 85.8642C313.065 86.8338 310.336 87.3185 307.28 87.3185C304.225 87.3185 301.434 86.8014 298.9 85.7713C296.365 84.7412 294.169 83.3152 292.305 81.4973C290.442 79.6754 289.01 77.5101 288.001 74.9934C286.996 72.4766 286.492 69.8872 286.492 66.8534C286.492 63.8196 286.992 61.0645 288.001 58.576C289.01 56.0916 290.442 53.9384 292.305 52.1205C294.164 50.3027 296.382 48.8888 298.945 47.891C301.508 46.8932 304.315 46.3922 307.37 46.3922C310.669 46.3922 313.692 46.982 316.438 48.1657C319.184 49.3493 321.751 51.1833 324.131 53.6678L333.565 44.9379C330.453 41.3628 326.621 38.632 322.072 36.7535C317.524 34.875 312.41 33.9338 306.731 33.9338C301.601 33.9338 296.898 34.7417 292.627 36.3455C289.37 37.5702 286.432 39.191 283.814 41.2062V0H269.16V38.6226L237.286 0H225.012ZM283.814 41.2062V63.6618H271.602C271.907 60.0964 272.733 56.7645 274.08 53.6718C275.821 49.6725 278.278 46.1862 281.451 43.213C282.207 42.5055 282.995 41.8365 283.814 41.2062Z" fill="#FFEEE4"/>
<path d="M196.959 146.641C214.933 146.641 229.505 132.172 229.505 114.324C229.505 96.475 214.933 82.0059 196.959 82.0059C178.984 82.0059 164.413 96.475 164.413 114.324C164.413 132.172 178.984 146.641 196.959 146.641Z" fill="#FFEEE4"/>
<path d="M196.959 126.443C203.699 126.443 209.163 121.017 209.163 114.324C209.163 107.631 203.699 102.205 196.959 102.205C190.218 102.205 184.754 107.631 184.754 114.324C184.754 121.017 190.218 126.443 196.959 126.443Z" fill="#0A8DFF"/>
<path d="M227.837 158.999V95.3369H240.111L277.937 141.171H271.985V95.3369H286.639V158.999H274.365L236.539 113.164H242.491V158.999H227.837Z" fill="#FFEEE4"/>
<path d="M75.4795 143.405C70.3495 143.405 65.4187 142.722 60.6874 141.357C55.956 139.991 52.1523 138.218 49.2842 136.036L54.3206 124.943C57.0057 126.882 60.244 128.474 64.0274 129.718C67.8109 130.962 71.6309 131.585 75.4754 131.585C78.4045 131.585 80.7722 131.282 82.5744 130.676C84.3767 130.07 85.7029 129.266 86.5572 128.264C87.4116 127.262 87.8387 126.099 87.8387 124.761C87.8387 123.065 87.1675 121.716 85.8249 120.714C84.4824 119.712 82.6965 118.896 80.4671 118.258C78.2377 117.619 75.809 117.017 73.185 116.44C70.561 115.866 67.9207 115.167 65.2641 114.347C62.6076 113.527 60.1667 112.436 57.9373 111.075C55.7079 109.71 53.9382 107.924 52.6242 105.71C51.3101 103.496 50.6552 100.725 50.6552 97.3884C50.6552 93.7486 51.6315 90.432 53.5843 87.4305C55.537 84.429 58.515 82.0335 62.5141 80.2439C66.5131 78.4583 71.5373 77.5615 77.5786 77.5615C81.6103 77.5615 85.5931 78.0463 89.5311 79.0158C93.4691 79.9853 96.9027 81.379 99.8359 83.2009L95.1656 94.298C92.2934 92.662 89.3358 91.4339 86.2806 90.6138C83.2253 89.7938 80.2962 89.3857 77.4892 89.3857C74.6821 89.3857 72.2086 89.7049 70.4389 90.3391C68.6693 90.9774 67.3715 91.8378 66.5456 92.9326C65.7198 94.0233 65.3089 95.2393 65.3089 96.5683C65.3089 98.265 65.9802 99.6304 67.3227 100.661C68.6652 101.691 70.4349 102.495 72.6358 103.072C74.8326 103.65 77.2735 104.224 79.9626 104.801C82.6476 105.379 85.3042 106.09 87.9323 106.938C90.5563 107.787 92.9687 108.865 95.1696 110.166C97.3665 111.471 99.1525 113.228 100.528 115.442C101.903 117.656 102.59 120.399 102.59 123.671C102.59 127.25 101.597 130.522 99.6122 133.491C97.6269 136.465 94.6204 138.856 90.5888 140.678C86.5572 142.496 81.5208 143.405 75.4754 143.405H75.4795Z" fill="#FFEEE4"/>
<path d="M133.533 92.5093C115.56 92.5093 100.987 106.98 100.987 124.827C100.987 142.674 115.56 157.145 133.533 157.145C151.507 157.145 166.079 142.674 166.079 124.827C166.079 106.98 151.507 92.5093 133.533 92.5093ZM133.533 136.946C126.792 136.946 121.328 131.521 121.328 124.827C121.328 118.133 126.792 112.708 133.533 112.708C140.274 112.708 145.738 118.133 145.738 124.827C145.738 131.521 140.274 136.946 133.533 136.946Z" fill="#FFEEE4"/>
</svg>
