<svg width="1027" height="280" viewBox="0 0 1027 280" fill="none" xmlns="http://www.w3.org/2000/svg">
<g clip-path="url(#clip0_5045_18928)">
<rect width="1029" height="280" fill="url(#paint0_linear_5045_18928)"/>
<g clip-path="url(#clip1_5045_18928)">
<path d="M603.592 193.953L506.772 59.4258L410.137 193.953H603.592Z" fill="url(#paint1_linear_5045_18928)"/>
<mask id="mask0_5045_18928" style="mask-type:luminance" maskUnits="userSpaceOnUse" x="410" y="59" width="194" height="135">
<path d="M603.592 193.953L506.772 59.4258L410.137 193.953H603.592Z" fill="white"/>
</mask>
<g mask="url(#mask0_5045_18928)">
<path d="M527.528 160.786C491.468 148.417 475.747 148.307 456.725 158.858C447.066 164.216 433.842 160.564 424.074 155.593L396.038 193.235H635.493L596.134 134.92C585.47 139.458 567.548 174.514 527.528 160.786Z" fill="url(#paint2_linear_5045_18928)"/>
<path d="M527.528 167.366C491.468 154.997 475.747 154.887 456.725 165.438C447.066 170.796 433.842 167.144 424.074 162.173L396.038 199.815H635.493L596.134 141.5C585.47 146.038 567.548 181.094 527.528 167.366Z" fill="url(#paint3_linear_5045_18928)"/>
<path d="M527.528 177.35C491.468 164.981 475.746 164.871 456.725 175.422C447.066 180.78 426.803 175.651 417.036 170.683L389 208.324H640L600.641 150.01C589.977 154.548 567.547 191.081 527.528 177.353V177.35Z" fill="url(#paint4_linear_5045_18928)"/>
</g>
<mask id="mask1_5045_18928" style="mask-type:luminance" maskUnits="userSpaceOnUse" x="410" y="59" width="194" height="135">
<path d="M603.592 193.953L506.772 59.4258L410.137 193.953H603.592Z" fill="white"/>
</mask>
<g mask="url(#mask1_5045_18928)">
<path d="M560.821 104.511C594.729 114.897 608.728 89.1926 611.489 75.0411L411.656 69.2051L447.268 142.125C454.86 137.708 496.91 130.429 499.35 118.76C502.398 104.173 518.438 91.5258 560.824 104.511H560.821Z" fill="url(#paint5_linear_5045_18928)"/>
<path d="M558.923 99.7626C592.831 110.149 606.831 84.4445 609.591 70.2931L409.759 64.457L450.81 139.668C458.402 135.251 495.013 125.684 497.452 114.015C500.5 99.4276 516.54 86.7808 558.926 99.7657L558.923 99.7626Z" fill="url(#paint6_linear_5045_18928)"/>
<path d="M555.714 93.3056C589.622 103.692 603.622 77.9875 606.382 63.836L406.55 58L447.598 133.211C455.19 128.794 491.801 119.227 494.24 107.558C497.288 92.9705 513.328 80.3238 555.714 93.3086V93.3056Z" fill="url(#paint7_linear_5045_18928)"/>
</g>
<path opacity="0.5" d="M510.453 94.0865C510.453 96.7091 509.251 97.9793 506.491 97.9793C503.73 97.9793 501.49 95.8532 501.49 93.2306C501.49 90.6081 502.692 89.3379 505.452 89.3379C508.213 89.3379 510.453 91.464 510.453 94.0865Z" fill="url(#paint8_linear_5045_18928)"/>
<path opacity="0.5" d="M480.913 119.346C480.534 121.247 478.485 120.485 475.721 120.485C472.958 120.485 472.419 119.69 472.419 117.068C472.419 115.454 473.148 114.598 475.912 114.598C478.676 114.598 480.913 116.724 480.913 119.346Z" fill="url(#paint9_linear_5045_18928)"/>
<mask id="mask2_5045_18928" style="mask-type:luminance" maskUnits="userSpaceOnUse" x="410" y="59" width="194" height="135">
<path d="M603.592 193.953L506.772 59.4258L410.137 193.953H603.592Z" fill="white"/>
</mask>
<g mask="url(#mask2_5045_18928)">
<path d="M489.596 189.804C495.635 189.804 495.635 183.916 489.596 183.916H417.876C445.715 183.916 445.715 163.88 417.876 163.88C427.123 163.88 427.123 150.109 417.876 150.109H398.059V186.298C397.356 188.336 398.616 190.943 401.833 190.943H427.123C424.481 190.943 424.481 193.414 427.123 193.414H475.912C478.27 193.414 478.27 189.804 475.912 189.804H489.596Z" fill="url(#paint10_linear_5045_18928)"/>
<path d="M485.822 191.705C491.861 191.705 491.861 185.817 485.822 185.817H414.102C441.94 185.817 441.94 165.781 414.102 165.781C423.349 165.781 423.349 152.01 414.102 152.01H394.284V188.199C393.582 190.236 394.841 192.844 398.059 192.844H423.349C420.706 192.844 420.706 195.314 423.349 195.314H472.137C474.495 195.314 474.495 191.705 472.137 191.705H485.822Z" fill="url(#paint11_linear_5045_18928)"/>
<path d="M474.053 177.839H446.003C439.452 177.839 439.452 170.392 446.003 170.392H454.085C450.964 170.392 450.964 167.775 454.085 167.775H469.676C474.05 167.775 474.05 171.601 469.676 171.601H474.05C481.914 171.601 481.914 177.842 474.05 177.842L474.053 177.839Z" fill="url(#paint12_linear_5045_18928)"/>
<path d="M471.148 178.98H444.447C438.212 178.98 438.212 172.233 444.447 172.233H452.142C449.169 172.233 449.169 169.863 452.142 169.863H466.986C471.148 169.863 471.148 173.327 466.986 173.327H471.148C478.633 173.327 478.633 178.98 471.148 178.98Z" fill="url(#paint13_linear_5045_18928)"/>
<path d="M518.849 179.361C509.602 179.361 509.602 190.375 518.849 190.375H507.713C502.24 190.375 502.24 193.415 507.713 193.415H565.939C573.016 193.415 573.016 187.527 565.939 187.527H581.416C593.778 187.527 593.778 176.037 580.85 176.037H596.327C606.425 176.037 606.425 164.643 596.327 164.643H567.45C554.334 164.643 554.334 170.625 567.45 170.625H537.347C528.099 170.625 528.099 179.361 537.347 179.361H518.852H518.849Z" fill="url(#paint14_linear_5045_18928)"/>
<path d="M529.849 180.24C521.114 180.24 521.114 190.566 529.849 190.566H519.331C514.161 190.566 514.161 193.414 519.331 193.414H574.336C581.023 193.414 581.023 187.895 574.336 187.895H588.956C600.634 187.895 600.634 177.124 588.421 177.124H603.041C612.582 177.124 612.582 166.445 603.041 166.445H575.762C563.37 166.445 563.37 172.053 575.762 172.053H547.324C538.588 172.053 538.588 180.24 547.324 180.24H529.849Z" fill="url(#paint15_linear_5045_18928)"/>
<path d="M607.456 198.544H566.587C557.043 198.544 557.043 185.333 566.587 185.333H578.364C573.815 185.333 573.815 180.691 578.364 180.691H601.082C607.456 180.691 607.456 187.475 601.082 187.475H607.456C618.913 187.475 618.913 198.544 607.456 198.544Z" fill="url(#paint16_linear_5045_18928)"/>
</g>
<path d="M557.54 181.83L558.254 183.77L560.183 184.489L558.254 185.208L557.54 187.148L556.826 185.208L554.897 184.489L556.826 183.77L557.54 181.83Z" fill="url(#paint17_linear_5045_18928)"/>
<path d="M566.978 172.145L568.812 177.134L573.77 178.98L568.812 180.825L566.978 185.815L565.144 180.825L560.186 178.98L565.144 177.134L566.978 172.145Z" fill="url(#paint18_linear_5045_18928)"/>
<path d="M554.522 170.436L555.899 174.179L559.62 175.565L555.899 176.951L554.522 180.694L553.145 176.951L549.425 175.565L553.145 174.179L554.522 170.436Z" fill="url(#paint19_linear_5045_18928)"/>
<g filter="url(#filter0_d_5045_18928)">
<path d="M579.385 160.193L603.595 193.954H528.76V186.5L587.667 186.473L573.652 166.814L579.385 165.745V160.189V160.193Z" fill="url(#paint20_linear_5045_18928)"/>
</g>
<g filter="url(#filter1_d_5045_18928)">
<path d="M438.487 191.07L464.089 186.531L525.878 186.504V193.954H410.137L438.06 154.957V169.38L425.956 186.473H438.484V191.067L438.487 191.07Z" fill="url(#paint21_linear_5045_18928)"/>
</g>
<path d="M603.592 193.954H410.137L438.06 154.957V169.38L425.956 186.473H438.484V191.067L464.086 186.528L587.661 186.473L573.646 166.815L579.379 165.746V160.19L603.589 193.951L603.592 193.954Z" fill="url(#paint22_linear_5045_18928)"/>
<g filter="url(#filter2_d_5045_18928)">
<path fill-rule="evenodd" clip-rule="evenodd" d="M459.869 124.665L471.717 122.624L506.772 73.6693L533.835 111.412L543.037 109.749L506.772 59.332L459.869 124.665Z" fill="url(#paint23_linear_5045_18928)"/>
</g>
<g filter="url(#filter3_d_5045_18928)">
<path fill-rule="evenodd" clip-rule="evenodd" d="M570.898 149.197L561.148 150.934L561.121 166.678L576.958 163.855V148.119L570.898 149.197Z" fill="url(#paint24_linear_5045_18928)"/>
<path fill-rule="evenodd" clip-rule="evenodd" d="M573.798 145.341L575.753 115.576L575.832 107.852L559.332 110.788V118.503L564.078 147.163L573.795 145.344L573.798 145.341Z" fill="url(#paint25_linear_5045_18928)"/>
<path fill-rule="evenodd" clip-rule="evenodd" d="M530.646 158.986V149.206L549.395 145.849V133.513L538.61 135.38L530.655 136.8L530.637 132.386L530.646 127.97L552.828 124.016V111.957L514.609 118.768L514.579 174.978L554.592 167.847V154.67L548.59 155.676L530.646 158.99V158.986Z" fill="url(#paint26_linear_5045_18928)"/>
<path fill-rule="evenodd" clip-rule="evenodd" d="M507.961 153.616C507.014 151.231 505.074 149.331 502.991 147.929C501.895 147.189 501.151 146.83 499.852 146.309C497.54 145.383 494.849 144.731 492.006 144.427C488.801 144.079 480.198 143.537 480.504 139.212C480.589 138.009 481.766 137.238 482.644 136.605C486.715 133.662 492.591 137.817 493.814 139.657C495.385 139.288 506.121 133.985 507.141 133.738C506.95 131.454 502.092 127.656 500.125 126.474C498.427 125.453 497.125 124.893 495.139 124.211C493.72 123.729 490.493 123.498 488.613 123.504C479.829 123.534 468.754 126.404 464.885 135.325C462.518 140.784 462.579 147.241 465.569 151.484C468.306 155.377 473.651 157.658 478.176 158.81C480.943 159.507 483.419 159.687 486.065 159.97C487.769 160.153 490.666 160.342 491.943 161.557C493.935 163.452 492.185 166.519 489.984 167.643C486.14 169.614 482.018 168.365 478.379 166.342C476.86 165.249 477.029 165.581 475.737 164.216L461.35 170.802C462.557 175.62 470.309 179.114 474.78 179.976C484.436 181.84 499.032 179.671 505.249 171.636C507.91 168.197 509.654 162.766 509.024 158.24C508.739 156.163 508.64 155.322 507.964 153.622L507.961 153.616Z" fill="url(#paint27_linear_5045_18928)"/>
<path fill-rule="evenodd" clip-rule="evenodd" d="M442.359 131.743L440.906 131.901L440.821 188.124L456.573 185.178L456.51 129.188L442.356 131.743H442.359Z" fill="url(#paint28_linear_5045_18928)"/>
</g>
<g opacity="0.4">
<path opacity="0.5" d="M482.989 119.346C482.61 121.247 480.561 120.485 477.798 120.485C475.034 120.485 474.495 119.69 474.495 117.068C474.495 115.454 475.225 114.598 477.988 114.598C480.752 114.598 482.989 116.724 482.989 119.346Z" fill="url(#paint29_linear_5045_18928)"/>
<path d="M559.616 181.83L560.331 183.77L562.259 184.489L560.331 185.208L559.616 187.148L558.902 185.208L556.974 184.489L558.902 183.77L559.616 181.83Z" fill="url(#paint30_linear_5045_18928)"/>
<path d="M569.054 172.145L570.889 177.134L575.847 178.98L570.889 180.825L569.054 185.815L567.22 180.825L562.262 178.98L567.22 177.134L569.054 172.145Z" fill="url(#paint31_linear_5045_18928)"/>
<path d="M556.598 170.436L557.976 174.179L561.696 175.565L557.976 176.951L556.598 180.694L555.221 176.951L551.501 175.565L555.221 174.179L556.598 170.436Z" fill="url(#paint32_linear_5045_18928)"/>
<path d="M453.488 183.347C460.565 183.347 459.905 191.419 454.054 191.419H429.896C419.61 191.419 419.704 183.347 429.896 183.347H437.067C432.441 183.347 432.254 177.648 437.067 177.648H450.182C453.954 177.648 453.769 183.341 450.191 183.347H453.485H453.488Z" fill="url(#paint33_linear_5045_18928)"/>
<path d="M605.668 193.954H412.213L440.136 154.957V169.38L428.032 186.473H440.56V191.067L466.162 186.528L589.737 186.473L575.722 166.815L581.455 165.746V160.19L605.665 193.951L605.668 193.954Z" fill="url(#paint34_linear_5045_18928)"/>
<path fill-rule="evenodd" clip-rule="evenodd" d="M461.945 124.665L473.793 122.624L508.848 73.6693L535.912 111.412L545.114 109.749L508.848 59.332L461.945 124.665Z" fill="url(#paint35_linear_5045_18928)"/>
</g>
<g filter="url(#filter4_d_5045_18928)">
<path d="M410.137 207.724V199.283H412.089V207.724H410.137Z" fill="white"/>
<path d="M414.247 207.724V199.283H415.851L420.8 205.36H420.022V199.283H421.939V207.724H420.334L415.388 201.647H416.166V207.724H414.247Z" fill="white"/>
<path d="M426.062 207.724H424.109V199.283H430.451V200.849H426.065V207.72L426.062 207.724ZM425.907 203.082H429.933V204.647H425.907V203.082Z" fill="white"/>
<path d="M435.935 207.87C435.272 207.87 434.658 207.761 434.101 207.544C433.541 207.328 433.053 207.021 432.639 206.628C432.221 206.235 431.9 205.775 431.673 205.242C431.446 204.712 431.334 204.133 431.334 203.505C431.334 202.878 431.449 202.29 431.673 201.763C431.903 201.236 432.224 200.773 432.639 200.38C433.053 199.987 433.541 199.683 434.095 199.467C434.648 199.25 435.257 199.141 435.92 199.141C436.583 199.141 437.194 199.247 437.748 199.46C438.302 199.671 438.786 199.975 439.204 200.368C439.619 200.761 439.94 201.224 440.167 201.754C440.397 202.284 440.509 202.869 440.509 203.502C440.509 204.136 440.394 204.709 440.167 205.245C439.937 205.778 439.616 206.244 439.204 206.64C438.786 207.033 438.302 207.334 437.748 207.547C437.194 207.761 436.586 207.867 435.932 207.867L435.935 207.87ZM435.923 206.219C436.298 206.219 436.643 206.152 436.961 206.018C437.276 205.887 437.554 205.699 437.793 205.452C438.033 205.205 438.217 204.922 438.35 204.596C438.481 204.27 438.547 203.908 438.547 203.505C438.547 203.103 438.481 202.738 438.35 202.412C438.217 202.089 438.033 201.803 437.793 201.559C437.554 201.312 437.276 201.124 436.961 200.993C436.646 200.859 436.301 200.792 435.923 200.792C435.544 200.792 435.199 200.859 434.882 200.993C434.564 201.124 434.285 201.312 434.049 201.559C433.813 201.803 433.631 202.089 433.498 202.412C433.365 202.738 433.298 203.103 433.298 203.505C433.298 203.908 433.365 204.27 433.498 204.596C433.628 204.922 433.81 205.205 434.049 205.452C434.288 205.699 434.564 205.887 434.882 206.018C435.199 206.149 435.547 206.219 435.923 206.219Z" fill="white"/>
<path d="M442.152 207.724V199.283H445.785C446.535 199.283 447.18 199.405 447.725 199.649C448.27 199.895 448.688 200.246 448.981 200.703C449.278 201.163 449.426 201.705 449.426 202.332C449.426 202.96 449.278 203.511 448.981 203.965C448.688 204.419 448.267 204.766 447.725 205.003C447.18 205.241 446.535 205.36 445.785 205.36H443.218L444.105 204.516V207.724H442.152ZM444.105 204.732L443.218 203.803H445.676C446.266 203.803 446.714 203.675 447.017 203.417C447.322 203.158 447.471 202.798 447.471 202.332C447.471 201.866 447.322 201.507 447.017 201.254C446.714 200.998 446.266 200.873 445.676 200.873H443.218L444.105 199.944V204.729V204.732ZM447.495 207.724L445.385 204.662H447.471L449.58 207.724H447.495Z" fill="white"/>
<path d="M451.14 207.724V199.283H452.744L456.316 205.238H455.465L458.964 199.283H460.581V207.724H458.771L458.746 202.095H459.11L456.279 206.822H455.417L452.553 202.095H452.947V207.724H451.137H451.14Z" fill="white"/>
<path d="M461.658 207.724L465.387 199.283H467.303L471.066 207.724H469.029L465.95 200.273H466.728L463.647 207.724H461.658ZM463.541 205.917L464.031 204.434H468.369L468.871 205.917H463.541Z" fill="white"/>
<path d="M473.436 207.724V200.877H470.754V199.287H478.064V200.877H475.379V207.724H473.439H473.436Z" fill="white"/>
<path d="M479.284 207.724V199.283H481.237V207.724H479.284Z" fill="white"/>
<path d="M487.469 207.87C486.806 207.87 486.192 207.761 485.635 207.544C485.075 207.328 484.587 207.021 484.173 206.628C483.755 206.235 483.434 205.775 483.207 205.242C482.98 204.712 482.868 204.133 482.868 203.505C482.868 202.878 482.983 202.29 483.207 201.763C483.437 201.236 483.758 200.773 484.173 200.38C484.587 199.987 485.075 199.683 485.629 199.467C486.183 199.25 486.791 199.141 487.454 199.141C488.117 199.141 488.728 199.247 489.282 199.46C489.836 199.671 490.32 199.975 490.738 200.368C491.153 200.761 491.474 201.224 491.701 201.754C491.931 202.284 492.043 202.869 492.043 203.502C492.043 204.136 491.928 204.709 491.701 205.245C491.471 205.778 491.15 206.244 490.738 206.64C490.32 207.033 489.836 207.334 489.282 207.547C488.728 207.761 488.12 207.867 487.466 207.867L487.469 207.87ZM487.457 206.219C487.832 206.219 488.177 206.152 488.495 206.018C488.81 205.887 489.089 205.699 489.328 205.452C489.567 205.205 489.751 204.922 489.885 204.596C490.015 204.27 490.081 203.908 490.081 203.505C490.081 203.103 490.015 202.738 489.885 202.412C489.751 202.089 489.567 201.803 489.328 201.559C489.089 201.312 488.81 201.124 488.495 200.993C488.18 200.859 487.835 200.792 487.457 200.792C487.079 200.792 486.734 200.859 486.416 200.993C486.098 201.124 485.819 201.312 485.583 201.559C485.347 201.803 485.166 202.089 485.032 202.412C484.899 202.738 484.833 203.103 484.833 203.505C484.833 203.908 484.899 204.27 485.032 204.596C485.163 204.922 485.344 205.205 485.583 205.452C485.822 205.699 486.098 205.887 486.416 206.018C486.734 206.149 487.082 206.219 487.457 206.219Z" fill="white"/>
<path d="M493.684 207.724V199.283H495.288L500.237 205.36H499.459V199.283H501.375V207.724H499.771L494.825 201.647H495.603V207.724H493.684Z" fill="white"/>
<path d="M509.887 207.87C509.215 207.87 508.57 207.779 507.949 207.599C507.332 207.42 506.832 207.182 506.457 206.893L507.117 205.421C507.471 205.68 507.892 205.89 508.388 206.055C508.885 206.219 509.384 206.302 509.887 206.302C510.271 206.302 510.577 206.262 510.816 206.18C511.049 206.101 511.224 205.994 511.336 205.863C511.448 205.729 511.506 205.577 511.506 205.397C511.506 205.172 511.418 204.995 511.243 204.861C511.067 204.73 510.834 204.62 510.543 204.535C510.25 204.453 509.935 204.371 509.59 204.294C509.245 204.218 508.9 204.127 508.552 204.017C508.204 203.908 507.886 203.764 507.592 203.585C507.302 203.402 507.068 203.164 506.899 202.872C506.729 202.58 506.642 202.208 506.642 201.769C506.642 201.288 506.769 200.846 507.026 200.45C507.283 200.051 507.671 199.732 508.198 199.497C508.721 199.259 509.375 199.141 510.168 199.141C510.695 199.141 511.215 199.205 511.73 199.333C512.248 199.46 512.696 199.646 513.08 199.887L512.469 201.358C512.093 201.142 511.706 200.977 511.306 200.871C510.907 200.761 510.522 200.706 510.156 200.706C509.79 200.706 509.469 200.749 509.233 200.834C509.003 200.916 508.833 201.032 508.724 201.175C508.618 201.322 508.564 201.483 508.564 201.657C508.564 201.882 508.652 202.062 508.827 202.199C509.003 202.336 509.233 202.442 509.52 202.519C509.808 202.595 510.126 202.671 510.477 202.75C510.828 202.829 511.176 202.921 511.518 203.033C511.863 203.146 512.178 203.289 512.466 203.46C512.753 203.636 512.989 203.868 513.168 204.16C513.346 204.453 513.437 204.818 513.437 205.251C513.437 205.726 513.307 206.158 513.047 206.554C512.786 206.947 512.393 207.267 511.866 207.508C511.339 207.748 510.68 207.87 509.89 207.87H509.887Z" fill="white"/>
<path d="M516.846 207.724V204.276L517.291 205.454L513.589 199.283H515.662L518.489 204.011H517.303L520.145 199.283H522.037L518.359 205.454L518.804 204.276V207.724H516.852H516.846Z" fill="white"/>
<path d="M525.63 207.87C524.958 207.87 524.313 207.779 523.692 207.599C523.075 207.42 522.576 207.182 522.2 206.893L522.86 205.421C523.214 205.68 523.635 205.89 524.131 206.055C524.628 206.219 525.127 206.302 525.63 206.302C526.014 206.302 526.32 206.262 526.559 206.18C526.792 206.101 526.968 205.994 527.08 205.863C527.192 205.729 527.249 205.577 527.249 205.397C527.249 205.172 527.161 204.995 526.986 204.861C526.81 204.73 526.577 204.62 526.287 204.535C525.993 204.453 525.678 204.371 525.333 204.294C524.988 204.218 524.643 204.127 524.295 204.017C523.947 203.908 523.629 203.764 523.335 203.585C523.045 203.402 522.812 203.164 522.642 202.872C522.473 202.58 522.385 202.208 522.385 201.769C522.385 201.288 522.512 200.846 522.769 200.45C523.027 200.051 523.414 199.732 523.941 199.497C524.464 199.259 525.118 199.141 525.911 199.141C526.438 199.141 526.959 199.205 527.473 199.333C527.991 199.46 528.439 199.646 528.823 199.887L528.212 201.358C527.836 201.142 527.449 200.977 527.049 200.871C526.65 200.761 526.265 200.706 525.899 200.706C525.533 200.706 525.212 200.749 524.976 200.834C524.746 200.916 524.576 201.032 524.467 201.175C524.361 201.322 524.307 201.483 524.307 201.657C524.307 201.882 524.395 202.062 524.57 202.199C524.746 202.336 524.976 202.442 525.263 202.519C525.551 202.595 525.869 202.671 526.22 202.75C526.571 202.826 526.919 202.921 527.261 203.033C527.606 203.146 527.921 203.289 528.209 203.46C528.496 203.636 528.732 203.868 528.911 204.16C529.09 204.453 529.18 204.818 529.18 205.251C529.18 205.726 529.05 206.158 528.79 206.554C528.53 206.947 528.136 207.267 527.609 207.508C527.083 207.748 526.423 207.87 525.633 207.87H525.63Z" fill="white"/>
<path d="M532.301 207.724V200.877H529.619V199.287H536.929V200.877H534.244V207.724H532.304H532.301Z" fill="white"/>
<path d="M540.078 206.158H544.642V207.724H538.146V199.283H544.488V200.849H540.078V206.155V206.158ZM539.935 202.673H543.97V204.205H539.935V202.673Z" fill="white"/>
<path d="M546.367 207.724V199.283H547.972L551.543 205.238H550.693L554.192 199.283H555.808V207.724H553.998L553.974 202.095H554.337L551.507 206.822H550.644L547.781 202.095H548.174V207.724H546.364H546.367Z" fill="white"/>
<path d="M560.761 207.87C560.089 207.87 559.444 207.779 558.823 207.599C558.206 207.42 557.706 207.182 557.331 206.893L557.991 205.421C558.345 205.68 558.766 205.89 559.262 206.055C559.759 206.219 560.258 206.302 560.761 206.302C561.145 206.302 561.451 206.262 561.69 206.18C561.923 206.101 562.098 205.994 562.21 205.863C562.322 205.729 562.38 205.577 562.38 205.397C562.38 205.172 562.292 204.995 562.117 204.861C561.941 204.73 561.708 204.62 561.417 204.535C561.124 204.453 560.809 204.371 560.464 204.294C560.119 204.218 559.774 204.127 559.426 204.017C559.078 203.908 558.76 203.764 558.466 203.585C558.176 203.402 557.943 203.164 557.773 202.872C557.603 202.58 557.516 202.208 557.516 201.769C557.516 201.288 557.643 200.846 557.9 200.45C558.157 200.051 558.545 199.732 559.072 199.497C559.595 199.259 560.249 199.141 561.042 199.141C561.569 199.141 562.089 199.205 562.604 199.333C563.122 199.46 563.57 199.646 563.954 199.887L563.343 201.358C562.967 201.142 562.58 200.977 562.18 200.871C561.781 200.761 561.396 200.706 561.03 200.706C560.664 200.706 560.343 200.749 560.107 200.834C559.877 200.916 559.707 201.032 559.598 201.175C559.492 201.322 559.438 201.483 559.438 201.657C559.438 201.882 559.526 202.062 559.701 202.199C559.877 202.336 560.107 202.442 560.394 202.519C560.682 202.595 561 202.671 561.351 202.75C561.702 202.826 562.05 202.921 562.392 203.033C562.737 203.146 563.052 203.289 563.34 203.46C563.627 203.636 563.863 203.868 564.042 204.16C564.22 204.453 564.311 204.818 564.311 205.251C564.311 205.726 564.181 206.158 563.921 206.554C563.66 206.947 563.267 207.267 562.74 207.508C562.214 207.748 561.554 207.87 560.764 207.87H560.761Z" fill="white"/>
<path d="M571.312 206.158H575.877V207.724H569.381V199.283H575.722V200.849H571.312V206.155V206.158ZM571.17 202.673H575.205V204.205H571.17V202.673Z" fill="white"/>
<path d="M576.573 207.724L580.169 202.722V204.145L576.731 199.286H578.925L581.307 202.661L580.372 202.682L582.745 199.283H584.843L581.416 204.056V202.661L585.046 207.724H582.803L580.336 204.141H581.223L578.789 207.724H576.573Z" fill="white"/>
<path d="M585.99 207.724V199.283H589.623C590.373 199.283 591.018 199.405 591.563 199.649C592.108 199.895 592.525 200.246 592.819 200.703C593.116 201.163 593.264 201.705 593.264 202.332C593.264 202.96 593.116 203.511 592.819 203.965C592.525 204.419 592.105 204.772 591.563 205.022C591.018 205.272 590.373 205.393 589.623 205.393H587.056L587.943 204.513V207.72H585.99V207.724ZM587.943 204.732L587.056 203.803H589.514C590.104 203.803 590.552 203.675 590.855 203.417C591.16 203.158 591.309 202.798 591.309 202.332C591.309 201.866 591.16 201.507 590.855 201.254C590.552 200.998 590.104 200.873 589.514 200.873H587.056L587.943 199.944V204.729V204.732Z" fill="white"/>
<path d="M599.015 207.87C598.352 207.87 597.738 207.761 597.181 207.544C596.621 207.328 596.133 207.021 595.719 206.628C595.301 206.235 594.98 205.775 594.753 205.242C594.526 204.712 594.414 204.133 594.414 203.505C594.414 202.878 594.529 202.29 594.753 201.763C594.983 201.236 595.304 200.773 595.719 200.38C596.133 199.987 596.621 199.683 597.175 199.467C597.729 199.25 598.337 199.141 599 199.141C599.663 199.141 600.274 199.247 600.828 199.46C601.382 199.671 601.866 199.975 602.284 200.368C602.699 200.761 603.02 201.224 603.247 201.754C603.477 202.284 603.589 202.869 603.589 203.502C603.589 204.136 603.474 204.709 603.247 205.245C603.02 205.781 602.696 206.244 602.284 206.64C601.866 207.033 601.382 207.334 600.828 207.547C600.274 207.761 599.666 207.867 599.012 207.867L599.015 207.87ZM599.003 206.219C599.378 206.219 599.723 206.152 600.041 206.018C600.356 205.887 600.634 205.699 600.874 205.452C601.113 205.205 601.297 204.922 601.431 204.596C601.561 204.27 601.627 203.908 601.627 203.505C601.627 203.103 601.561 202.738 601.431 202.412C601.297 202.089 601.113 201.803 600.874 201.559C600.634 201.312 600.356 201.124 600.041 200.993C599.726 200.859 599.381 200.792 599.003 200.792C598.625 200.792 598.279 200.859 597.962 200.993C597.644 201.124 597.365 201.312 597.129 201.559C596.893 201.803 596.712 202.089 596.578 202.412C596.445 202.738 596.379 203.103 596.379 203.505C596.379 203.908 596.445 204.27 596.578 204.596C596.708 204.922 596.89 205.205 597.129 205.452C597.368 205.699 597.644 205.887 597.962 206.018C598.279 206.149 598.628 206.219 599.003 206.219Z" fill="white"/>
<path d="M492.067 220.62V219.356L495.302 216.279C495.56 216.048 495.747 215.838 495.871 215.658C495.996 215.478 496.077 215.308 496.12 215.152C496.159 214.997 496.18 214.848 496.18 214.711C496.18 214.382 496.065 214.126 495.844 213.94C495.62 213.754 495.287 213.66 494.836 213.66C494.476 213.66 494.149 213.733 493.852 213.879C493.559 214.022 493.305 214.235 493.099 214.516L491.697 213.599C492.006 213.118 492.451 212.737 493.029 212.454C493.604 212.17 494.267 212.033 495.015 212.033C495.638 212.033 496.186 212.134 496.658 212.335C497.131 212.536 497.494 212.822 497.754 213.197C498.011 213.568 498.145 214.016 498.145 214.528C498.145 214.793 498.105 215.064 498.03 215.335C497.954 215.609 497.815 215.892 497.615 216.191C497.415 216.489 497.119 216.824 496.728 217.19L494.046 219.724L493.674 219.027H498.42V220.617H492.07L492.067 220.62Z" fill="white"/>
<path d="M502.986 220.767C502.298 220.767 501.684 220.596 501.145 220.255C500.606 219.914 500.18 219.417 499.865 218.772C499.55 218.126 499.393 217.334 499.393 216.402C499.393 215.47 499.55 214.681 499.865 214.032C500.18 213.383 500.606 212.89 501.145 212.549C501.684 212.208 502.295 212.037 502.986 212.037C503.676 212.037 504.296 212.208 504.835 212.549C505.374 212.89 505.801 213.383 506.115 214.032C506.43 214.678 506.588 215.467 506.588 216.402C506.588 217.337 506.43 218.123 506.115 218.772C505.801 219.417 505.374 219.914 504.835 220.255C504.296 220.596 503.679 220.767 502.986 220.767ZM502.986 219.128C503.312 219.128 503.597 219.034 503.842 218.845C504.084 218.656 504.275 218.361 504.417 217.958C504.557 217.556 504.626 217.039 504.626 216.402C504.626 215.765 504.557 215.251 504.417 214.845C504.275 214.443 504.084 214.148 503.842 213.959C503.597 213.77 503.312 213.676 502.986 213.676C502.659 213.676 502.392 213.77 502.144 213.959C501.896 214.148 501.702 214.443 501.56 214.845C501.415 215.248 501.342 215.765 501.342 216.402C501.342 217.039 501.415 217.553 501.56 217.958C501.705 218.361 501.896 218.656 502.144 218.845C502.392 219.034 502.671 219.128 502.986 219.128Z" fill="white"/>
<path d="M507.583 220.62V219.356L510.819 216.279C511.076 216.048 511.264 215.838 511.388 215.658C511.512 215.478 511.594 215.308 511.636 215.152C511.676 214.997 511.697 214.848 511.697 214.711C511.697 214.382 511.582 214.126 511.361 213.94C511.137 213.754 510.804 213.66 510.353 213.66C509.993 213.66 509.666 213.733 509.369 213.879C509.075 214.022 508.821 214.235 508.615 214.516L507.214 213.599C507.523 213.118 507.968 212.737 508.546 212.454C509.121 212.17 509.784 212.033 510.531 212.033C511.155 212.033 511.703 212.134 512.175 212.335C512.647 212.536 513.01 212.822 513.271 213.197C513.528 213.568 513.661 214.016 513.661 214.528C513.661 214.793 513.622 215.064 513.546 215.335C513.471 215.609 513.331 215.892 513.132 216.191C512.932 216.489 512.635 216.824 512.245 217.19L509.563 219.724L509.19 219.027H513.937V220.617H507.586L507.583 220.62Z" fill="white"/>
<path d="M517.614 220.767C517.033 220.767 516.455 220.688 515.889 220.533C515.32 220.377 514.832 220.149 514.427 219.85L515.18 218.37C515.498 218.601 515.868 218.79 516.288 218.927C516.706 219.07 517.136 219.138 517.578 219.138C518.065 219.138 518.45 219.04 518.725 218.845C519.007 218.647 519.143 218.379 519.143 218.044C519.143 217.709 519.022 217.468 518.773 217.283C518.525 217.1 518.126 217.005 517.575 217.005H516.7V215.726L519.025 213.052L519.243 213.749H514.844V212.184H520.714V213.448L518.389 216.113L517.405 215.546H517.968C519 215.546 519.781 215.778 520.311 216.247C520.841 216.713 521.107 217.307 521.107 218.029C521.107 218.51 520.98 218.964 520.729 219.378C520.475 219.798 520.096 220.134 519.585 220.386C519.073 220.642 518.413 220.767 517.608 220.767H517.614Z" fill="white"/>
</g>
</g>
<path d="M254.386 289.5V159.244H55.9668" stroke="#AB68A5" stroke-width="5" stroke-miterlimit="10"/>
<path d="M253.953 171.906C261.107 171.906 266.906 166.107 266.906 158.953C266.906 151.799 261.107 146 253.953 146C246.799 146 241 151.799 241 158.953C241 166.107 246.799 171.906 253.953 171.906Z" fill="#0A8CFF"/>
<path d="M61.2437 187.632C45.5923 187.632 32.8553 174.895 32.8553 159.244C32.8553 143.592 45.5923 130.855 61.2437 130.855V115C36.8491 115 17 134.849 17 159.244C17 183.638 36.8491 203.487 61.2437 203.487V187.632Z" fill="url(#paint36_linear_5045_18928)"/>
<path d="M54.9597 172.197C62.1134 172.197 67.9126 166.398 67.9126 159.244C67.9126 152.09 62.1134 146.291 54.9597 146.291C47.806 146.291 42.0068 152.09 42.0068 159.244C42.0068 166.398 47.806 172.197 54.9597 172.197Z" fill="#E17A3D"/>
<path d="M765.458 13.6504L674.301 13.7405" stroke="#AE68A8" stroke-width="5" stroke-miterlimit="10"/>
<path d="M767.127 67.953C737.133 64.6899 715.462 37.7315 718.72 7.73251C721.983 -22.2665 748.941 -43.9381 778.935 -40.6749C808.929 -37.4117 830.6 -10.4534 827.342 19.5456C824.079 49.5447 797.121 71.2162 767.127 67.953ZM805.618 17.183C807.572 -0.81744 794.573 -16.9903 776.578 -18.9504C758.582 -20.9051 742.404 -7.90533 740.449 10.0951C738.495 28.0956 751.494 44.2685 769.495 46.2285C787.49 48.1832 803.668 35.1835 805.623 17.183H805.618Z" fill="url(#paint37_linear_5045_18928)"/>
<path d="M773.034 27.2748C780.565 27.2748 786.669 21.17 786.669 13.6393C786.669 6.1087 780.565 0.00390625 773.034 0.00390625C765.503 0.00390625 759.398 6.1087 759.398 13.6393C759.398 21.17 765.503 27.2748 773.034 27.2748Z" fill="#0A8CFF"/>
<path d="M673.951 11.1973V106" stroke="#348AB5" stroke-width="5" stroke-miterlimit="10"/>
<path d="M691.603 30.9403V-3.66211L657 -3.66211V30.9403H691.603Z" fill="url(#paint38_linear_5045_18928)"/>
<path d="M742.981 103.217L673.475 103.286" stroke="#EEAA84" stroke-width="5" stroke-miterlimit="10"/>
<path d="M674.301 114.622C680.588 114.622 685.685 109.525 685.685 103.238C685.685 96.9503 680.588 91.8535 674.301 91.8535C668.014 91.8535 662.917 96.9503 662.917 103.238C662.917 109.525 668.014 114.622 674.301 114.622Z" fill="#62C2AB"/>
<path d="M899.243 103.143L762.174 103.196" stroke="#EEAA84" stroke-width="5" stroke-miterlimit="10"/>
<path d="M769.415 120.602V86H734.813V120.602H769.415Z" fill="url(#paint39_linear_5045_18928)"/>
<path d="M910.22 114.438V91.9453H887.727V114.438H910.22Z" fill="#0A8CFF"/>
<path d="M392.86 85.0424C390.742 87.7048 329.927 35.2197 327.465 37.4046C324.929 39.6518 370.244 105.823 367.417 107.556C364.537 109.321 325.518 39.273 322.414 40.4926C319.284 41.7226 339.02 119.358 335.739 120.027C332.452 120.697 319.827 41.6084 316.467 41.7018C313.123 41.8004 305.089 121.48 301.755 120.998C298.421 120.515 313.744 41.9042 310.535 40.8455C307.384 39.8023 272.351 111.905 269.367 110.296C266.383 108.687 307.937 40.1033 305.261 37.9911C302.584 35.884 244.941 91.7789 242.745 89.3241C240.486 86.8018 303.002 36.3459 301.259 33.533C299.517 30.7201 226.071 63.4993 224.845 60.4113C223.608 57.2974 299.731 31.2442 299.058 27.985C298.385 24.7154 218.099 30.6266 218 27.2844C217.901 23.9577 298.39 25.2655 298.88 21.9492C299.365 18.664 221.882 -3.05561 222.946 -6.24738C223.994 -9.38206 299.131 19.3231 300.748 16.3545C302.365 13.3859 237.022 -33.38 239.14 -36.0424C241.258 -38.7048 302.073 13.7803 304.535 11.5954C306.998 9.41045 261.756 -56.8226 264.583 -58.5561C267.463 -60.3206 306.482 9.72705 309.586 8.50743C312.716 7.27743 292.98 -70.3578 296.261 -71.0273C299.548 -71.6968 312.173 7.39159 315.533 7.29818C318.877 7.19957 326.911 -72.4805 330.245 -71.9978C333.548 -71.5152 318.256 7.09577 321.465 8.1545C324.616 9.19767 359.649 -62.9052 362.633 -61.2963C365.617 -59.6875 324.063 8.89666 326.739 11.0089C329.416 13.116 387.059 -42.7789 389.255 -40.324C391.514 -37.8018 328.998 12.6541 330.741 15.467C332.515 18.3318 405.929 -14.4993 407.155 -11.4113C408.381 -8.32332 332.269 17.7558 332.942 21.015C333.615 24.2846 413.901 18.3734 414 21.7156C414.099 25.0423 333.61 23.7345 333.12 27.0508C332.635 30.336 410.118 52.0556 409.054 55.2474C407.99 58.4391 332.869 29.6769 331.252 32.6455C329.682 35.5363 394.979 82.38 392.86 85.0424Z" fill="url(#paint40_linear_5045_18928)"/>
<path d="M908.443 225.785H990.299" stroke="url(#paint41_linear_5045_18928)" stroke-width="3.97214" stroke-miterlimit="10"/>
<path d="M809.184 238.967C816.465 238.967 822.367 233.064 822.367 225.783C822.367 218.502 816.465 212.6 809.184 212.6C801.903 212.6 796 218.502 796 225.783C796 233.064 801.903 238.967 809.184 238.967Z" stroke="#FFEEE4" stroke-width="5.29916" stroke-miterlimit="10"/>
<path d="M852.013 238.967C859.294 238.967 865.196 233.064 865.196 225.783C865.196 218.502 859.294 212.6 852.013 212.6C844.732 212.6 838.829 218.502 838.829 225.783C838.829 233.064 844.732 238.967 852.013 238.967Z" stroke="#FFEEE4" stroke-width="5.29916" stroke-miterlimit="10"/>
<path d="M895.098 238.967C902.379 238.967 908.281 233.064 908.281 225.783C908.281 218.502 902.379 212.6 895.098 212.6C887.817 212.6 881.914 218.502 881.914 225.783C881.914 233.064 887.817 238.967 895.098 238.967Z" stroke="#FFEEE4" stroke-width="5.29916" stroke-miterlimit="10"/>
<path d="M963.434 225.784C963.434 254.381 986.62 277.567 1015.22 277.567C1043.81 277.567 1067 254.381 1067 225.784C1067 197.186 1043.81 174 1015.22 174C986.62 174 963.434 197.186 963.434 225.784ZM1015.22 203.207C1027.69 203.207 1037.79 213.315 1037.79 225.784C1037.79 238.252 1027.69 248.36 1015.22 248.36C1002.75 248.36 992.641 238.252 992.641 225.784C992.641 213.315 1002.75 203.207 1015.22 203.207Z" fill="url(#paint42_linear_5045_18928)"/>
<path d="M251.285 270.74V227.672" stroke="url(#paint43_linear_5045_18928)" stroke-width="2.38535" stroke-miterlimit="10"/>
<path d="M275.453 214.832C275.453 228.157 264.611 239 251.285 239C237.96 239 227.117 228.157 227.117 214.832H213.619C213.619 235.601 230.516 252.498 251.285 252.498C272.054 252.498 288.951 235.601 288.951 214.832H275.453Z" fill="url(#paint44_linear_5045_18928)"/>
<path d="M251.283 230.495C259.651 230.495 266.435 223.711 266.435 215.342C266.435 206.974 259.651 200.189 251.283 200.189C242.914 200.189 236.13 206.974 236.13 215.342C236.13 223.711 242.914 230.495 251.283 230.495Z" fill="url(#paint45_linear_5045_18928)"/>
<g filter="url(#filter5_d_5045_18928)">
<path d="M329.012 198H178.784C173.933 198 170 201.933 170 206.784C170 211.635 173.933 215.567 178.784 215.567H329.012C333.863 215.567 337.796 211.635 337.796 206.784C337.796 201.933 333.863 198 329.012 198Z" fill="url(#paint46_linear_5045_18928)"/>
</g>
<path d="M251.285 285.43C255.676 285.43 259.236 281.871 259.236 277.48C259.236 273.089 255.676 269.529 251.285 269.529C246.894 269.529 243.335 273.089 243.335 277.48C243.335 281.871 246.894 285.43 251.285 285.43Z" stroke="#FFEEE4" stroke-width="3.59143" stroke-miterlimit="10"/>
<path d="M693.534 238.23C704.874 238.23 714.068 229.036 714.068 217.696C714.068 206.355 704.874 197.162 693.534 197.162C682.193 197.162 673 206.355 673 217.696C673 229.036 682.193 238.23 693.534 238.23Z" fill="url(#paint47_linear_5045_18928)"/>
<path d="M693.534 207.419C698.896 207.419 703.243 203.072 703.243 197.71C703.243 192.347 698.896 188 693.534 188C688.171 188 683.824 192.347 683.824 197.71C683.824 203.072 688.171 207.419 693.534 207.419Z" stroke="#F6EFF5" stroke-width="2.79295" stroke-miterlimit="10"/>
</g>
<defs>
<filter id="filter0_d_5045_18928" x="517.53" y="152.079" width="87.315" height="46.2437" filterUnits="userSpaceOnUse" color-interpolation-filters="sRGB">
<feFlood flood-opacity="0" result="BackgroundImageFix"/>
<feColorMatrix in="SourceAlpha" type="matrix" values="0 0 0 0 0 0 0 0 0 0 0 0 0 0 0 0 0 0 127 0" result="hardAlpha"/>
<feOffset dx="-4.99" dy="-1.87"/>
<feGaussianBlur stdDeviation="3.12"/>
<feColorMatrix type="matrix" values="0 0 0 0 0 0 0 0 0 0 0 0 0 0 0 0 0 0 0.75 0"/>
<feBlend mode="normal" in2="BackgroundImageFix" result="effect1_dropShadow_5045_18928"/>
<feBlend mode="normal" in="SourceGraphic" in2="effect1_dropShadow_5045_18928" result="shape"/>
</filter>
<filter id="filter1_d_5045_18928" x="408.887" y="146.847" width="128.221" height="51.478" filterUnits="userSpaceOnUse" color-interpolation-filters="sRGB">
<feFlood flood-opacity="0" result="BackgroundImageFix"/>
<feColorMatrix in="SourceAlpha" type="matrix" values="0 0 0 0 0 0 0 0 0 0 0 0 0 0 0 0 0 0 127 0" result="hardAlpha"/>
<feOffset dx="4.99" dy="-1.87"/>
<feGaussianBlur stdDeviation="3.12"/>
<feColorMatrix type="matrix" values="0 0 0 0 0 0 0 0 0 0 0 0 0 0 0 0 0 0 0.75 0"/>
<feBlend mode="normal" in2="BackgroundImageFix" result="effect1_dropShadow_5045_18928"/>
<feBlend mode="normal" in="SourceGraphic" in2="effect1_dropShadow_5045_18928" result="shape"/>
</filter>
<filter id="filter2_d_5045_18928" x="453.629" y="59.332" width="95.648" height="77.812" filterUnits="userSpaceOnUse" color-interpolation-filters="sRGB">
<feFlood flood-opacity="0" result="BackgroundImageFix"/>
<feColorMatrix in="SourceAlpha" type="matrix" values="0 0 0 0 0 0 0 0 0 0 0 0 0 0 0 0 0 0 127 0" result="hardAlpha"/>
<feOffset dy="6.24"/>
<feGaussianBlur stdDeviation="3.12"/>
<feColorMatrix type="matrix" values="0 0 0 0 0 0 0 0 0 0 0 0 0 0 0 0 0 0 0.75 0"/>
<feBlend mode="normal" in2="BackgroundImageFix" result="effect1_dropShadow_5045_18928"/>
<feBlend mode="normal" in="SourceGraphic" in2="effect1_dropShadow_5045_18928" result="shape"/>
</filter>
<filter id="filter3_d_5045_18928" x="433.341" y="107.852" width="143.617" height="90.8615" filterUnits="userSpaceOnUse" color-interpolation-filters="sRGB">
<feFlood flood-opacity="0" result="BackgroundImageFix"/>
<feColorMatrix in="SourceAlpha" type="matrix" values="0 0 0 0 0 0 0 0 0 0 0 0 0 0 0 0 0 0 127 0" result="hardAlpha"/>
<feOffset dx="-6.24" dy="9.35"/>
<feGaussianBlur stdDeviation="0.62"/>
<feColorMatrix type="matrix" values="0 0 0 0 0.0784314 0 0 0 0 0.0784314 0 0 0 0 0.0784314 0 0 0 0.5 0"/>
<feBlend mode="normal" in2="BackgroundImageFix" result="effect1_dropShadow_5045_18928"/>
<feBlend mode="normal" in="SourceGraphic" in2="effect1_dropShadow_5045_18928" result="shape"/>
</filter>
<filter id="filter4_d_5045_18928" x="408.897" y="199.141" width="195.932" height="24.737" filterUnits="userSpaceOnUse" color-interpolation-filters="sRGB">
<feFlood flood-opacity="0" result="BackgroundImageFix"/>
<feColorMatrix in="SourceAlpha" type="matrix" values="0 0 0 0 0 0 0 0 0 0 0 0 0 0 0 0 0 0 127 0" result="hardAlpha"/>
<feOffset dy="1.87"/>
<feGaussianBlur stdDeviation="0.62"/>
<feColorMatrix type="matrix" values="0 0 0 0 0.137255 0 0 0 0 0.121569 0 0 0 0 0.12549 0 0 0 0.75 0"/>
<feBlend mode="normal" in2="BackgroundImageFix" result="effect1_dropShadow_5045_18928"/>
<feBlend mode="normal" in="SourceGraphic" in2="effect1_dropShadow_5045_18928" result="shape"/>
</filter>
<filter id="filter5_d_5045_18928" x="164.433" y="192.433" width="183.702" height="33.472" filterUnits="userSpaceOnUse" color-interpolation-filters="sRGB">
<feFlood flood-opacity="0" result="BackgroundImageFix"/>
<feColorMatrix in="SourceAlpha" type="matrix" values="0 0 0 0 0 0 0 0 0 0 0 0 0 0 0 0 0 0 127 0" result="hardAlpha"/>
<feOffset dx="2.38535" dy="2.38535"/>
<feGaussianBlur stdDeviation="3.9764"/>
<feColorMatrix type="matrix" values="0 0 0 0 0 0 0 0 0 0 0 0 0 0 0 0 0 0 0.2 0"/>
<feBlend mode="normal" in2="BackgroundImageFix" result="effect1_dropShadow_5045_18928"/>
<feBlend mode="normal" in="SourceGraphic" in2="effect1_dropShadow_5045_18928" result="shape"/>
</filter>
<linearGradient id="paint0_linear_5045_18928" x1="-90.4984" y1="-23.9726" x2="722.126" y2="650.003" gradientUnits="userSpaceOnUse">
<stop stop-color="#00616C"/>
<stop offset="1" stop-color="#AFD196"/>
<stop offset="1" stop-color="#AFD196"/>
</linearGradient>
<linearGradient id="paint1_linear_5045_18928" x1="506.866" y1="59.4258" x2="506.866" y2="193.953" gradientUnits="userSpaceOnUse">
<stop stop-color="#2C769B"/>
<stop offset="0.44" stop-color="#2C769B"/>
<stop offset="1" stop-color="#B4D2EA"/>
</linearGradient>
<linearGradient id="paint2_linear_5045_18928" x1="515.766" y1="134.92" x2="515.766" y2="193.235" gradientUnits="userSpaceOnUse">
<stop offset="0.15" stop-color="#FBD68D"/>
<stop offset="0.59" stop-color="#E37B3C"/>
</linearGradient>
<linearGradient id="paint3_linear_5045_18928" x1="515.766" y1="141.5" x2="515.766" y2="199.818" gradientUnits="userSpaceOnUse">
<stop offset="0.16" stop-color="#FCE6B7"/>
<stop offset="0.7" stop-color="#E37A3C"/>
</linearGradient>
<linearGradient id="paint4_linear_5045_18928" x1="514.5" y1="150.01" x2="514.5" y2="208.324" gradientUnits="userSpaceOnUse">
<stop offset="0.18" stop-color="#EC925F"/>
<stop offset="0.65" stop-color="#FDEECF"/>
</linearGradient>
<linearGradient id="paint5_linear_5045_18928" x1="575.09" y1="59.3179" x2="462.231" y2="100.309" gradientUnits="userSpaceOnUse">
<stop offset="0.59" stop-color="#A145A9"/>
<stop offset="1" stop-color="#EAC8E6"/>
</linearGradient>
<linearGradient id="paint6_linear_5045_18928" x1="587.867" y1="71.8069" x2="445.148" y2="98.8671" gradientUnits="userSpaceOnUse">
<stop offset="0.54" stop-color="#A2449C"/>
<stop offset="0.82" stop-color="#EFCEEB"/>
</linearGradient>
<linearGradient id="paint7_linear_5045_18928" x1="584.658" y1="65.3499" x2="441.939" y2="92.4101" gradientUnits="userSpaceOnUse">
<stop offset="0.48" stop-color="#A63BA0"/>
<stop offset="0.83" stop-color="#EAC8E6"/>
</linearGradient>
<linearGradient id="paint8_linear_5045_18928" x1="505.97" y1="89.3409" x2="505.97" y2="97.9823" gradientUnits="userSpaceOnUse">
<stop stop-color="#955891"/>
<stop offset="1" stop-color="#DDBDDA"/>
</linearGradient>
<linearGradient id="paint9_linear_5045_18928" x1="476.669" y1="111.086" x2="476.669" y2="119.727" gradientUnits="userSpaceOnUse">
<stop stop-color="#DBBDD9"/>
<stop offset="1" stop-color="#F7F0F7"/>
</linearGradient>
<linearGradient id="paint10_linear_5045_18928" x1="448.354" y1="159.43" x2="440.238" y2="191.98" gradientUnits="userSpaceOnUse">
<stop offset="0.45" stop-color="#62C2AC"/>
<stop offset="1" stop-color="#2D584E"/>
</linearGradient>
<linearGradient id="paint11_linear_5045_18928" x1="442.482" y1="169.213" x2="438.756" y2="196.84" gradientUnits="userSpaceOnUse">
<stop stop-color="#9ED9CB"/>
<stop offset="1" stop-color="#53A692"/>
</linearGradient>
<linearGradient id="paint12_linear_5045_18928" x1="460.52" y1="177.842" x2="460.52" y2="167.775" gradientUnits="userSpaceOnUse">
<stop stop-color="#79B3A4"/>
<stop offset="1" stop-color="#298671"/>
</linearGradient>
<linearGradient id="paint13_linear_5045_18928" x1="459.564" y1="170.908" x2="456.976" y2="180.556" gradientUnits="userSpaceOnUse">
<stop stop-color="#A2CBC2"/>
<stop offset="1" stop-color="#77B4A5"/>
</linearGradient>
<linearGradient id="paint14_linear_5045_18928" x1="553.753" y1="164.643" x2="553.753" y2="193.418" gradientUnits="userSpaceOnUse">
<stop stop-color="#1C614F"/>
<stop offset="1" stop-color="#53A591"/>
</linearGradient>
<linearGradient id="paint15_linear_5045_18928" x1="560.972" y1="173.119" x2="565.301" y2="192.873" gradientUnits="userSpaceOnUse">
<stop stop-color="#BAE5DB"/>
<stop offset="1" stop-color="#468B79"/>
</linearGradient>
<linearGradient id="paint16_linear_5045_18928" x1="588.366" y1="198.477" x2="586.453" y2="180.627" gradientUnits="userSpaceOnUse">
<stop stop-color="#D8F1EB"/>
<stop offset="1" stop-color="#9DD8CA"/>
</linearGradient>
<linearGradient id="paint17_linear_5045_18928" x1="557.54" y1="181.83" x2="557.54" y2="187.148" gradientUnits="userSpaceOnUse">
<stop offset="0.55" stop-color="#EDAB88"/>
<stop offset="1" stop-color="#FCDEA2"/>
</linearGradient>
<linearGradient id="paint18_linear_5045_18928" x1="566.978" y1="172.145" x2="566.978" y2="185.818" gradientUnits="userSpaceOnUse">
<stop offset="0.55" stop-color="#EDAB88"/>
<stop offset="1" stop-color="#FCDEA2"/>
</linearGradient>
<linearGradient id="paint19_linear_5045_18928" x1="554.522" y1="170.436" x2="554.522" y2="180.691" gradientUnits="userSpaceOnUse">
<stop offset="0.55" stop-color="#EDAB88"/>
<stop offset="1" stop-color="#FCDEA2"/>
</linearGradient>
<linearGradient id="paint20_linear_5045_18928" x1="566.176" y1="154.957" x2="566.176" y2="193.954" gradientUnits="userSpaceOnUse">
<stop stop-color="#61C3AC"/>
<stop offset="1" stop-color="#348BB6"/>
</linearGradient>
<linearGradient id="paint21_linear_5045_18928" x1="468.009" y1="154.957" x2="468.009" y2="193.954" gradientUnits="userSpaceOnUse">
<stop stop-color="#61C3AC"/>
<stop offset="1" stop-color="#348BB6"/>
</linearGradient>
<linearGradient id="paint22_linear_5045_18928" x1="506.866" y1="154.957" x2="506.866" y2="193.954" gradientUnits="userSpaceOnUse">
<stop stop-color="#53A692"/>
<stop offset="1" stop-color="#2C769B"/>
</linearGradient>
<linearGradient id="paint23_linear_5045_18928" x1="501.453" y1="59.332" x2="501.453" y2="124.665" gradientUnits="userSpaceOnUse">
<stop stop-color="#CDA0C9"/>
<stop offset="0.61" stop-color="#B068AA"/>
</linearGradient>
<linearGradient id="paint24_linear_5045_18928" x1="569.04" y1="148.119" x2="569.04" y2="166.678" gradientUnits="userSpaceOnUse">
<stop stop-color="white"/>
<stop offset="0.63" stop-color="#F3F8FC"/>
</linearGradient>
<linearGradient id="paint25_linear_5045_18928" x1="567.583" y1="107.852" x2="567.583" y2="147.163" gradientUnits="userSpaceOnUse">
<stop stop-color="white"/>
<stop offset="0.63" stop-color="#F3F8FC"/>
</linearGradient>
<linearGradient id="paint26_linear_5045_18928" x1="534.584" y1="111.951" x2="534.584" y2="174.975" gradientUnits="userSpaceOnUse">
<stop stop-color="white"/>
<stop offset="0.63" stop-color="#F3F8FC"/>
</linearGradient>
<linearGradient id="paint27_linear_5045_18928" x1="485.25" y1="123.504" x2="485.25" y2="180.597" gradientUnits="userSpaceOnUse">
<stop stop-color="white"/>
<stop offset="0.63" stop-color="#F3F8FC"/>
</linearGradient>
<linearGradient id="paint28_linear_5045_18928" x1="448.697" y1="129.191" x2="448.697" y2="188.127" gradientUnits="userSpaceOnUse">
<stop stop-color="white"/>
<stop offset="0.63" stop-color="#F3F8FC"/>
</linearGradient>
<linearGradient id="paint29_linear_5045_18928" x1="478.742" y1="-1620.48" x2="478.742" y2="-1620.48" gradientUnits="userSpaceOnUse">
<stop stop-color="#DBBDD9"/>
<stop offset="1" stop-color="#F7F0F7"/>
</linearGradient>
<linearGradient id="paint30_linear_5045_18928" x1="559.616" y1="181.83" x2="559.616" y2="187.148" gradientUnits="userSpaceOnUse">
<stop stop-color="#EDAB88"/>
<stop offset="1" stop-color="#F6A76E"/>
</linearGradient>
<linearGradient id="paint31_linear_5045_18928" x1="569.054" y1="172.145" x2="569.054" y2="185.818" gradientUnits="userSpaceOnUse">
<stop stop-color="#EDAB88"/>
<stop offset="1" stop-color="#F6A76E"/>
</linearGradient>
<linearGradient id="paint32_linear_5045_18928" x1="556.598" y1="170.436" x2="556.598" y2="180.691" gradientUnits="userSpaceOnUse">
<stop stop-color="#EDAB88"/>
<stop offset="1" stop-color="#F6A76E"/>
</linearGradient>
<linearGradient id="paint33_linear_5045_18928" x1="440.417" y1="177.651" x2="440.417" y2="191.422" gradientUnits="userSpaceOnUse">
<stop stop-color="#FFFAF6"/>
<stop offset="1" stop-color="#FBE6B8"/>
</linearGradient>
<linearGradient id="paint34_linear_5045_18928" x1="508.942" y1="154.957" x2="508.942" y2="193.954" gradientUnits="userSpaceOnUse">
<stop stop-color="#61C3AC"/>
<stop offset="1" stop-color="#348BB6"/>
</linearGradient>
<linearGradient id="paint35_linear_5045_18928" x1="503.529" y1="59.332" x2="503.529" y2="124.665" gradientUnits="userSpaceOnUse">
<stop stop-color="#CDA0C9"/>
<stop offset="1"/>
</linearGradient>
<linearGradient id="paint36_linear_5045_18928" x1="39.1219" y1="230.35" x2="39.1218" y2="115" gradientUnits="userSpaceOnUse">
<stop stop-color="#53A4D0"/>
<stop offset="1" stop-color="#FFDCA5"/>
</linearGradient>
<linearGradient id="paint37_linear_5045_18928" x1="773.034" y1="-40.998" x2="773.034" y2="68.2815" gradientUnits="userSpaceOnUse">
<stop stop-color="#F9D58B"/>
<stop offset="1" stop-color="#AD68A7"/>
</linearGradient>
<linearGradient id="paint38_linear_5045_18928" x1="674.301" y1="-3.66741" x2="674.301" y2="30.9403" gradientUnits="userSpaceOnUse">
<stop stop-color="#643B60"/>
<stop offset="1" stop-color="#E47A3D"/>
</linearGradient>
<linearGradient id="paint39_linear_5045_18928" x1="752.108" y1="86" x2="752.108" y2="120.608" gradientUnits="userSpaceOnUse">
<stop stop-color="#348AB5"/>
<stop offset="1" stop-color="#CBE0EF"/>
</linearGradient>
<linearGradient id="paint40_linear_5045_18928" x1="218.005" y1="24.5026" x2="414" y2="24.5026" gradientUnits="userSpaceOnUse">
<stop stop-color="#AAFFEA"/>
<stop offset="1" stop-color="#AB68A5"/>
</linearGradient>
<linearGradient id="paint41_linear_5045_18928" x1="-nan" y1="-nan" x2="-nan" y2="-nan" gradientUnits="userSpaceOnUse">
<stop stop-color="#F0AE69"/>
<stop offset="1" stop-color="white"/>
</linearGradient>
<linearGradient id="paint42_linear_5045_18928" x1="963.445" y1="225.784" x2="1067" y2="225.784" gradientUnits="userSpaceOnUse">
<stop stop-color="#348BB6"/>
<stop offset="1" stop-color="#CCE1F0"/>
</linearGradient>
<linearGradient id="paint43_linear_5045_18928" x1="-nan" y1="-nan" x2="-nan" y2="-nan" gradientUnits="userSpaceOnUse">
<stop stop-color="#F0AE69"/>
<stop offset="1" stop-color="white"/>
</linearGradient>
<linearGradient id="paint44_linear_5045_18928" x1="251.285" y1="214.832" x2="251.285" y2="252.498" gradientUnits="userSpaceOnUse">
<stop stop-color="#F7D389"/>
<stop offset="1" stop-color="#AB68A5"/>
</linearGradient>
<linearGradient id="paint45_linear_5045_18928" x1="266.438" y1="215.342" x2="236.13" y2="215.342" gradientUnits="userSpaceOnUse">
<stop stop-color="#FCEDCD"/>
<stop offset="1" stop-color="#87B8DC"/>
</linearGradient>
<linearGradient id="paint46_linear_5045_18928" x1="241.734" y1="204.548" x2="244.699" y2="237.971" gradientUnits="userSpaceOnUse">
<stop stop-color="#CB82C5"/>
<stop offset="1" stop-color="white"/>
</linearGradient>
<linearGradient id="paint47_linear_5045_18928" x1="673" y1="217.696" x2="714.066" y2="217.696" gradientUnits="userSpaceOnUse">
<stop stop-color="#B6D89D"/>
<stop offset="1" stop-color="#0A8CFF"/>
</linearGradient>
<clipPath id="clip0_5045_18928">
<rect width="1029" height="280" fill="white"/>
</clipPath>
<clipPath id="clip1_5045_18928">
<rect width="251" height="164" fill="white" transform="translate(389 58)"/>
</clipPath>
</defs>
</svg>
