<svg width="349" height="140" viewBox="0 0 349 140" fill="none" xmlns="http://www.w3.org/2000/svg">
<path d="M26.5016 83.95V67.6L76.0016 0.999993H101.502L53.0516 67.6L41.2016 64.15H123.852V83.95H26.5016ZM83.0516 106V83.95L83.8016 64.15V44.5H106.752V106H83.0516ZM228.38 83.95V67.6L277.88 0.999993H303.38L254.93 67.6L243.08 64.15H325.73V83.95H228.38ZM284.93 106V83.95L285.68 64.15V44.5H308.63V106H284.93Z" fill="#FFEEE4"/>
<path d="M175 105C198.196 105 217 81.4949 217 52.5C217 23.5051 198.196 0 175 0C151.804 0 133 23.5051 133 52.5C133 81.4949 151.804 105 175 105Z" fill="#FFEEE4"/>
<path d="M175 72.1875C183.698 72.1875 190.75 63.3731 190.75 52.5C190.75 41.6269 183.698 32.8125 175 32.8125C166.302 32.8125 159.25 41.6269 159.25 52.5C159.25 63.3731 166.302 72.1875 175 72.1875Z" fill="#0A8DFF"/>
</svg>
